<?xml version="1.0" encoding="utf-8"?>
<!-- Generator: Adobe Illustrator 24.0.1, SVG Export Plug-In . SVG Version: 6.00 Build 0)  -->
<svg version="1.1" id="Camada_1" xmlns="http://www.w3.org/2000/svg" xmlns:xlink="http://www.w3.org/1999/xlink" x="0px" y="0px"
	 viewBox="0 0 500 500" style="enable-background:new 0 0 500 500;" xml:space="preserve">
<style type="text/css">
	.st0{fill:#F4F4F4;}
	.st1{fill:#993333;}
</style>
<g>
	<g>
		<path class="st0" d="M35.2,339.4h-9.7c-0.4,0-0.8-0.4-0.7-0.8l10.5-90.5c0.2-1.5,2.2-1.8,2.8-0.5l34.5,71.2l34.5-71.2
			c0.6-1.3,2.6-1,2.8,0.5l10.5,90.5c0,0.4-0.3,0.8-0.7,0.8h-9.7c-0.4,0-0.7-0.3-0.7-0.6l-6.7-61.4l-28.6,60c-0.5,1.1-2.1,1.1-2.7,0
			l-28.6-60l-6.7,61.4C35.9,339.1,35.5,339.4,35.2,339.4z"/>
		<path class="st0" d="M134.4,274.8c2.3-5.7,5.6-10.7,9.8-14.9c4.2-4.2,9.1-7.6,14.8-10c5.7-2.4,11.8-3.6,18.5-3.6
			c6.7,0,12.9,1.2,18.6,3.6s10.6,5.7,14.8,10c4.2,4.2,7.5,9.2,9.8,14.9c2.3,5.7,3.5,12,3.5,18.7c0,6.6-1.2,12.9-3.5,18.6
			c-2.3,5.8-5.6,10.8-9.8,15c-4.2,4.2-9.1,7.6-14.8,10s-11.8,3.6-18.6,3.6c-6.6,0-12.8-1.2-18.5-3.6c-5.7-2.4-10.6-5.7-14.8-10
			c-4.2-4.2-7.5-9.2-9.8-15c-2.3-5.8-3.5-12-3.5-18.6C130.9,286.8,132.1,280.5,134.4,274.8z M147.2,312c3,5.4,7.1,9.7,12.4,12.9
			c5.2,3.1,11.2,4.7,17.8,4.7c6.7,0,12.7-1.6,17.9-4.7c5.2-3.1,9.3-7.4,12.3-12.9c3-5.4,4.5-11.6,4.5-18.5s-1.5-13.1-4.5-18.5
			c-3-5.4-7.1-9.7-12.3-12.9c-5.2-3.1-11.2-4.7-17.9-4.7c-6.6,0-12.6,1.6-17.8,4.7c-5.2,3.1-9.4,7.4-12.4,12.9
			c-3,5.4-4.5,11.6-4.5,18.5S144.2,306.6,147.2,312z"/>
		<path class="st0" d="M320.4,248.3v91.9c0,1.3-1.6,2-2.6,1l-66.9-70.2v67.6c0,0.4-0.3,0.7-0.7,0.7h-9.7c-0.4,0-0.7-0.3-0.7-0.7
			v-91.9c0-1.3,1.6-2,2.6-1l66.9,70.2v-67.6c0-0.4,0.3-0.7,0.7-0.7h9.7C320.1,247.6,320.4,247.9,320.4,248.3z"/>
		<path class="st0" d="M393.1,258.1v-10.5h-46.8h-5h-5.4c-0.4,0-0.7,0.3-0.7,0.7v90.4c0,0.4,0.3,0.7,0.7,0.7h5.4h5h46.1
			c0.4,0,0.7-0.3,0.7-0.7v-9.1c0-0.4-0.3-0.7-0.7-0.7h-46.1v-30.1h43.5c0.4,0,0.7-0.3,0.7-0.7V289c0-0.4-0.3-0.7-0.7-0.7h-43.5
			v-30.2H393.1z"/>
		<path class="st0" d="M475.1,248.7l-29.8,44.7v45.3c0,0.4-0.3,0.7-0.7,0.7h-9.7c-0.4,0-0.7-0.3-0.7-0.7v-45.1l-29.8-44.8
			c-0.3-0.5,0-1.1,0.6-1.1h10.7c0.2,0,0.5,0.1,0.6,0.3l23.4,35.2l23.5-35.2c0.1-0.2,0.4-0.3,0.6-0.3h10.7
			C475.1,247.6,475.4,248.3,475.1,248.7z"/>
	</g>
	<g>
		<path class="st0" d="M178.2,374.7v5.8h-10.3v34.9h-6.1v-34.9h-10.1v-5.8H178.2z"/>
		<path class="st0" d="M198.6,403.9c0-1.7,0.3-3.3,1-4.9c0.7-1.5,1.5-2.8,2.7-4c1.1-1.1,2.4-2.1,3.9-2.7c1.5-0.7,3.1-1,4.7-1
			c1.1,0,2.2,0.1,3.1,0.4c0.9,0.3,1.7,0.6,2.4,1c0.7,0.4,1.2,0.8,1.6,1.3c0.4,0.4,0.7,0.8,0.8,1.2l0.2-3.3h4.6v23.5h-4.8v-3
			c-0.2,0.3-0.5,0.7-0.9,1.1c-0.4,0.4-0.9,0.8-1.6,1.2c-0.7,0.4-1.4,0.7-2.3,0.9c-0.9,0.3-1.9,0.4-3.1,0.4c-1.8,0-3.5-0.3-5-1
			c-1.5-0.7-2.8-1.5-3.9-2.6c-1.1-1.1-1.9-2.4-2.6-3.8C198.9,407,198.6,405.5,198.6,403.9z M203.4,403.6c0,1.1,0.2,2.1,0.6,3
			c0.4,0.9,0.9,1.7,1.6,2.4c0.7,0.7,1.5,1.2,2.4,1.6c0.9,0.4,2,0.6,3.1,0.6s2.2-0.2,3.1-0.6c1-0.4,1.8-0.9,2.5-1.6
			c0.7-0.7,1.2-1.5,1.6-2.4c0.4-0.9,0.6-1.9,0.6-3c0-1.1-0.2-2.1-0.6-3c-0.4-0.9-0.9-1.7-1.6-2.4c-0.7-0.7-1.5-1.2-2.5-1.6
			c-1-0.4-2-0.6-3.1-0.6s-2.2,0.2-3.1,0.6c-0.9,0.4-1.7,0.9-2.4,1.6c-0.7,0.7-1.2,1.5-1.6,2.4C203.6,401.5,203.4,402.5,203.4,403.6z
			"/>
		<path class="st0" d="M257.7,415.4H253v-43.7h4.8V415.4z"/>
		<path class="st0" d="M303.7,391.3l2.9,2.9c-1.4,1.3-2.8,2.6-4.1,3.8c-1.3,1.2-2.7,2.5-4.1,3.9c1.7,2.2,3.3,4.5,4.9,6.8
			c1.6,2.3,3.2,4.5,4.9,6.8h-5.5c-1.3-1.8-2.6-3.5-3.8-5.2c-1.3-1.7-2.6-3.4-3.8-5.2l-3.3,3v7.4H287v-43.7h4.8v30.6
			c2.1-1.9,4.1-3.8,6-5.5C299.7,395.1,301.7,393.2,303.7,391.3z"/>
		<path class="st0" d="M347.4,394l-2.5,3.4c0,0-0.2-0.1-0.4-0.3c-0.2-0.1-0.5-0.3-0.9-0.4c-0.4-0.1-0.8-0.3-1.2-0.4
			c-0.5-0.1-0.9-0.2-1.4-0.2c-0.6,0-1.3,0.2-1.9,0.4c-0.6,0.3-0.9,0.9-0.9,1.7c0,0.7,0.3,1.3,0.8,1.7c0.5,0.4,1.1,0.9,1.9,1.2
			c0.7,0.4,1.6,0.7,2.4,1.1c0.9,0.4,1.7,0.8,2.4,1.4c0.7,0.5,1.4,1.2,1.9,2c0.5,0.8,0.8,1.8,0.8,3.1c0,2.1-0.7,3.8-2.2,5.2
			c-1.4,1.4-3.4,2.1-5.9,2.1c-1.5,0-2.9-0.3-4.3-0.8c-1.4-0.5-2.5-1.2-3.4-2.2c0.3-0.3,0.6-0.6,0.9-1c0.3-0.4,0.6-0.8,1-1.2
			c0.3-0.4,0.6-0.7,0.8-0.9c0.2-0.2,0.3-0.4,0.4-0.4c0,0,0.1,0.2,0.4,0.3c0.3,0.2,0.6,0.4,1.1,0.6c0.4,0.2,1,0.4,1.5,0.6
			c0.6,0.2,1.1,0.3,1.7,0.3c0.9,0,1.7-0.2,2.3-0.7c0.6-0.4,1-1,1-1.8c0-0.7-0.3-1.2-0.8-1.6c-0.5-0.4-1.1-0.8-1.9-1.1
			c-0.7-0.3-1.6-0.7-2.5-1c-0.9-0.4-1.7-0.8-2.5-1.4c-0.7-0.6-1.4-1.3-1.9-2.1c-0.5-0.8-0.8-1.9-0.8-3.3c0-1.3,0.2-2.3,0.7-3.2
			c0.5-0.9,1.1-1.6,1.8-2.1c0.7-0.5,1.5-0.9,2.4-1.2c0.9-0.2,1.8-0.4,2.6-0.4c1.1,0,2.2,0.2,3.5,0.7
			C345.5,392.5,346.6,393.1,347.4,394z"/>
	</g>
	<rect x="182.2" y="202.8" class="st0" width="131.1" height="6.1"/>
	<polygon class="st0" points="258.9,147.9 258.9,144 237.5,154.5 237.5,158.4 	"/>
	<polygon class="st0" points="224.8,164.6 224.8,160.7 203.4,171.2 203.4,175.1 	"/>
	<polygon class="st0" points="271.6,141.7 291.2,132.1 291.2,128.2 269.9,138.6 271.6,138.6 	"/>
	<polygon class="st0" points="237.5,174.6 237.5,178.5 258.9,168 258.9,164.1 	"/>
	<polygon class="st0" points="203.4,191.3 203.4,195.2 224.8,184.7 224.8,180.8 	"/>
	<polygon class="st0" points="271.6,157.9 271.6,161.8 291.2,152.2 291.2,148.3 	"/>
	<polygon class="st1" points="190.7,141.2 190.7,199 203.4,199 203.4,195.2 203.4,191.3 203.4,175.1 203.4,171.2 203.4,141.2 	"/>
	<polygon class="st1" points="224.8,148.7 224.8,160.7 224.8,164.6 224.8,180.8 224.8,184.7 224.8,199 237.5,199 237.5,178.5 
		237.5,174.6 237.5,158.4 237.5,154.5 237.5,148.7 	"/>
	<polygon class="st1" points="269.9,138.6 258.9,138.6 258.9,144 258.9,147.9 258.9,164.1 258.9,168 258.9,199 271.6,199 
		271.6,161.8 271.6,157.9 271.6,141.7 271.6,138.6 	"/>
	<polygon class="st1" points="291.2,115.6 291.2,128.2 291.2,132.1 291.2,148.3 291.2,152.2 291.2,199 303.9,199 303.9,115.6 	"/>
	<path class="st0" d="M303.9,84h-19.6l5.1,5.1l-56.2,39.4L201,102.4l-19.2,13.1v18l19.2-13.1l28.8,23.3c2,1.6,4.9,1.7,6.9,0.2
		l61.7-45.7l5.4,5.4V84z"/>
</g>
</svg>
