<svg id="Camada_1" data-name="Camada 1" xmlns="http://www.w3.org/2000/svg" viewBox="0 0 1020.65 697.16"><defs><style>.cls-1{fill:#fff;fill-rule:evenodd;}</style></defs><title>Marca</title><path class="cls-1" d="M481.63,68.45c0,3.85,11,17.38,11,22L450,126.36c-8.77,6.29-12.76,3-20.71,6.84,1,4.29,1.76,4,2.76,8.27l-21.69,16.9c-4,3.39-17.84,16.33-22.42,17.55-.85-3.63-1.26-4-2.76-6.89-9.79,2.28-20.54,4.61-30.33,6.89l9.63,20.68-44.1,35.81c-1.2-5.17-3.59-8.55-6-13.31-2.61-5.22-3.61-7.73-6-13.31-3.47-8.18-11-19.3-12.85-27.11-5.35,1.24-9.93,2-16,3.3-5.67,1.26-11.44,3.12-17.09,3.59l13.34,29.37c4.18,9.84,9.71,19.23,13.67,29.05l26.75,58.69c5.47,0,29.74-5.28,33.09-6.89-.94-4-2.42-6.39-4.14-9.64L378,257c2.68-2.1,2.58-1.49,5.41-4.24,3.3-3.21,1.7-3.32,7.25-3.78l16.53,34.46c2.86-1.38,27.17-6.8,31.72-6.9-.55-6.61-8.36-19.41-11.49-25.71-2.61-5.27-4.35-7.26-6.91-12.39-2.37-4.75-4.15-8.61-6.41-12.88L453,194.17c3.63-3.36,1.42-3.1,6.55-4.47l38.6,73,30.33-6.9c-1.29-5.5-34.58-62.11-40.89-74.87-2.25-4.53-3.83-6.48-6-10.55l23.19-20.92c6.52-5.15,11.47-10.73,16.79-12.15l37.49,65.87c2.94,4.72,4.75,8,7.53,13.13l15.64,27.09c5.41-.45,10.1-2.36,15.72-3.57,5.85-1.28,12-3.19,17.35-3.32L524.1,82.5c-4.73-7.63-8.73-15.17-13.52-22.31C503.79,63.44,481.63,64,481.63,68.45Zm-5.51,93.69-12.69-24.52c-7.84-12.3-3.51-8.91,19.22-28.2l14.15-12c3.56,2.62,17.07,27.49,19.3,31.7ZM410,218.63c-2.38-10.23-16.54-29.74-16.54-34.45,0-2,22.16-19.21,25.86-22.37l16.87-13.45c2.83,4.22,16.68,29.15,17.92,34.45ZM341,276.5c-1.73-7.42-4.54-11.88-7.8-18.38-2.72-5.44-7.47-13.37-8.74-18.82,4.42-1.18,2.77-.61,5.89-3.76l38.22-30.69c21.86,41.28,19,33.17,6.56,43.77-2.49,2.13-3.07,2.35-5.43,4.21C360.15,260.37,354.62,267.4,341,276.5Z" transform="translate(-4.67 -6.42)"/><path class="cls-1" d="M152.16,412.9c-.42,5.09-2,10.69-3.09,16.2-1,4.86-2.49,12.34-3.46,17.21l-21,98.86-21-17.55c-2.64-2.61-4.24-4.3-6.85-6.92L14.32,444.59a24.25,24.25,0,0,1-9.65,2.75l2.76,42.72c-.1,9.71,1.44,13.13,1.4,22,0,3.35-.28,7.81,0,11l2.8,33c.35,8.17-.62,14.82.78,22.64,1.31,7.31.2,15.34.51,22.92.33,8.21,1.43,4.56,1.43,22,6.62,3.51,6.41,3,14.6.84,22.94-6,17.76-2.57,17.19-10.4-.28-3.71.17-7.09-.39-10.79l-3.94-58.07a330.22,330.22,0,0,1-2.65-38.69l54.78,50c3.17,3.13,3.83,2.94,6.89,5.5,8.37,7,27.56,27.38,37.59,34.09,10.09-4.84,6.06,6.28,12.51-26.07l17.4-88.7c1.34-7-1.33-3.19,3.17-6.48,2.09,7.83,55.42,82.73,63.41,97.83,6.09,0,11.56-1.54,16.55-2.75,8.07-1.94,8.18-.61,12.39-6.9a131.65,131.65,0,0,0-12.4-19.28L174.6,430.44C157.11,407.71,167,411.36,152.16,412.9Z" transform="translate(-4.67 -6.42)"/><path class="cls-1" d="M237.64,454.24c0,41.52,39.72,69.89,76.64,79.09,9.91,2.46,36.5,7.28,45.43,5.83C379,536,381.24,539,405,531.91c33.3-9.94,58.57-26.71,73-57.9,25.67-55.39-45-106.57-101.12-106.57-34.87,0-72,2.67-100.27,23.77-6.49,4.85-14.9,10.94-19.9,17.31-1.62,2.05-1,1.71-2.9,4C244,424.25,237.64,438.19,237.64,454.24Zm126.82,62c-25.7,0-48.36-1.92-68.95-16.5-7.65-5.42-11.91-9.13-17.68-16.77-25.49-33.73-1.71-75.32,47.84-90.92,73.81-23.24,156.21,29.22,117.65,87.27-13.79,20.76-37.55,30.19-61.48,35A76.14,76.14,0,0,1,364.46,516.23Z" transform="translate(-4.67 -6.42)"/><path class="cls-1" d="M514.72,374.32c11,.24,13.15,6.07,23.43,6.88l1,1.39c9.33,1.92,108.94,38.57,123.24,43.91l50,17.55c10.49,3.6,15.1,8.88,25.64,3.29l-50.09-83.58c-8.19-14.92-16.36-27.87-25.16-42.35-2.42-4-4.16-6.76-6.08-10.46-.65-1.26-5.23-9.61-6-10.52-5.06-5.85-20.19-.66-25.67,2.25.58,6.91,3.6,8.86,6.44,14.23l23.84,40.92c2.64,4.46,4.61,8.43,7.49,13.18,3.13,5.18,5.3,8.43,8.17,13.89l16.09,28c-6.89-.15-21-6.79-28.08-9.13-5.09-1.7-8.93-2.86-13.28-4.65L603.89,384.4c-9-3.66-18.81-6.72-27.32-9.89l-95.79-33.78c-7.77-2.7-7.7-3-14.31.53,1.37,5.89,58.2,114.94,66.63,131.8,11.9,23.77,8.56,25.79,32.41,19.55,6.3-1.65,8.36-4.13,5.38-10.36-10.42-21.72-30.21-55.94-41.49-78.51Zm0,0h-1.38l1.14-1.6Z" transform="translate(-4.67 -6.42)"/><path class="cls-1" d="M677.38,291.65c0,5.87,15.26,28.62,18.48,33.9l40.75,66.73c6.78,11.44,13.38,21.67,20.28,33.47C768.69,446,765.1,442.31,789,437.6c13.91-2.75,29.59-7.27,43.1-10.64,9-2.25,77.15-16.94,85.19-22.33-1-4.27-2.22-5.73-4.68-9.09l-4.32-5.33c-5.9-6.62-28.64,2.8-35.38,4.51L782.15,417c-1.2-2.25-1.75-3.8-3.31-6.34l-27-43.25,105.59-25.35c2.73-.68,6-1.39,7.78-1.88,5.39-1.47,2.45-.33,6.56-3.08-1-4.47-4.7-10-7.86-12.84-6.42-5.73-20.68,0-33.5,3.19l-89.6,20.66c-2.16,0-2.58-2.6-3.72-4.54-1.75-3-1.9-3.06-3.62-6-3.93-6.78-20.27-31.26-21.6-36.28,8.46-.19,19.88-4,28.63-5.83l87.16-20.35c0-7-3.14-12.87-8.89-16s-51.1,9.36-60.33,11.59l-71.5,16.72C683.84,288,677.38,288.68,677.38,291.65Z" transform="translate(-4.67 -6.42)"/><path class="cls-1" d="M492.66,7.81l-5.51,0C476.07,8,464.24,12.66,453,15c-5.62,1.17-5.63.86-8.55,5.23,3.16,4.32,10.31,6.37,16.53,6.89-1.14,4.92-11.62,16.13-16.2,21l-69,81.21c-3.18,4-4.34,2.69-5.76,8-7.31-1.7-16.55-4.57-23.61-6.71-7.79-2.36-16.28-4.85-23.51-6.8L287.78,113.4c-3.93-1.33-8.57-2.18-11.54-3.62-2.19,3.28-48.46,50-53.77,57.87,1.78,3.38,2.57,6.22,4.13,9.65,2,4.3,3.66,5.24,4.14,11,6.1-.5,2.1.23,5.34-1.55,4.4-2.44,12.93-13.51,16.47-18l19.23-22.11c3-3.17,3.11-4.45,6.15-7.65a45.06,45.06,0,0,1,8-7.2c5.54,1.29,9.69,2.94,16,4.69,5.75,1.6,11.37,3.31,16.94,5.11l32.42,10.31c41.19,11.5,35.8-1.84,59.76-27.34L484.39,34c4.68,1.09,27.21,11.35,23-3.53l-9.62-18.12C495.68,8.26,497.3,9.08,492.66,7.81Z" transform="translate(-4.67 -6.42)"/><path class="cls-1" d="M949,290.28l-34.47-15.15C903,270,863.69,248.94,855.21,248.94c-7.64,0-14.17,2.62-20.68,4.13.71,8.49,7.83,8.91,21.57,15.66,4.91,2.4,8.42,3.42,13.36,5.93s8.45,3.79,13.33,6l51.54,24.25c11.42,4.6,15.19,5.77,22.09,15.13L984,358.6c3.13,4.62,14.75,22.52,18.49,24.23,4.94,2.25,15.52-1,18.8-2.35,8.23-3.33,2.73-7.78-5.78-18.92l-35.22-48.85c-7.36-8.6-4.54-6.52-2-19.33l12-72c-3.74-2-4.7-3.09-10.2-2-23.06,4.34-16.28.17-26,47.2-.7,3.38-1.69,7-2.53,11.24S949.33,285.68,949,290.28Z" transform="translate(-4.67 -6.42)"/><path class="cls-1" d="M290,317.83a20.58,20.58,0,0,0,2.75,6.89c4.09-.34,6.09-1.29,10.21-2.2,4.83-1.06,6.69-1.3,11.3-2.48,7.79-2,14.86-3.54,22.51-5.06l43.65-10.11c30.25-7,59.4-12.79,88.78-20.11,14.57-3.63,28.94-6.3,43.82-9.93l132.63-30c-2.64-9.9-8.27-4.8-26.08-1.28l-110.09,25c-14.13,3.44-28.74,6.4-43.85,9.92-29.75,6.92-59,12.82-87.7,19.8-14.94,3.64-29.25,6.34-43.82,9.94Z" transform="translate(-4.67 -6.42)"/><path class="cls-1" d="M546.43,611.3c-6-.13-5.19-1.37-15.17-1.37-30.28,0-46.4,30.37-21.27,47.43,11.88,8.08,30,9.87,43.36,3.59,6.38-3,8.74-6.34,13.76-9.68l1.54,5.45A31.86,31.86,0,0,0,580.88,654L555.55,603.3C542.54,602.23,545.93,609.17,546.43,611.3Zm-35.85,27.56c0-16.23,11-19.29,26.19-19.29,26.71,0,29.34,35.83-2.75,35.83C525.71,655.4,510.58,650.18,510.58,638.86Z" transform="translate(-4.67 -6.42)"/><path class="cls-1" d="M722.87,534.15l40,71.64c6.93,0,6.17-1.24,12.41-1.37-3.3-6.24-6.4-11.77-9.66-17.91l37.23,9.64c2.21,0,13.49-1.35,16.53-5.51-6.14-.51-20.18-4.44-26.69-6.38-8-2.39-19.39-4.38-25.69-7.4,3.52-5.24,7.74-10.22,11.83-15.73,4.32-5.81,7.8-10.28,11.61-16-4.1.34-8.75,1.72-12.47,2.69-8.09,2.13-14.54,14.62-20.08,21.27l-1.29,1.47c-.13.15-.41.5-.63.75l-11.07-20.62c-1.93-3.23-3.54-6.27-5.49-9.66-1.25-2.18-1.55-2.42-3.14-5.13S735,528.13,722.87,534.15Z" transform="translate(-4.67 -6.42)"/><path class="cls-1" d="M386.51,703.58h1.39c6-.07,4.35-.9,9.64-1.33-.35-4.32-4.39-12.63-6.42-17-3.4-7.31-21-46.41-21.15-53.27,4.61-.1,20.33-4,23.44-5.51a36.17,36.17,0,0,1-2.76-8.27L345,629c-4.47,1.37-11.45,2.62-15,4.31.4,4.68,1.05,5,2.76,8.27,8.42-.71,16.39-4.81,24.82-5.52l26.33,63.24c.14.3.25.71.38,1Z" transform="translate(-4.67 -6.42)"/><path class="cls-1" d="M875.88,528.63c0,3.68,3.14,8,5.43,9.74,13.66,10.47,35.93-1.92,35.93,17.83-19.6,9.39-11-8.77-27.57,0,2.65,9.91,15.8,11,24.81,11,7.44,0,10.68-5.26,15.17-8.26,0-8.72.77-16.83-15.41-21.81l-26-4.37v-5.51c6-1.6,3.67-3.09,12.41,2.76,3-2,4.76-2.61,6.89-5.52C899.44,513.39,875.88,516.7,875.88,528.63Z" transform="translate(-4.67 -6.42)"/><path class="cls-1" d="M629.13,557.57c1.53,6.58,34.19,66.06,38.6,74.4a36.46,36.46,0,0,1,11-2.75L664.5,602.14c-4.72-9.46-23-41.6-24.34-47.33A36.83,36.83,0,0,0,629.13,557.57Z" transform="translate(-4.67 -6.42)"/><path class="cls-1" d="M492.66,7.81C491.2,6.1,495,6.32,489.91,6.65c-2.86.17-1.31.07-2.76,1.11Z" transform="translate(-4.67 -6.42)"/><path class="cls-1" d="M539.16,382.59l-1-1.39Z" transform="translate(-4.67 -6.42)"/></svg>