<?xml version="1.0" encoding="utf-8"?>
<!-- Generator: Adobe Illustrator 24.0.1, SVG Export Plug-In . SVG Version: 6.00 Build 0)  -->
<svg version="1.1" id="Camada_1" xmlns="http://www.w3.org/2000/svg" xmlns:xlink="http://www.w3.org/1999/xlink" x="0px" y="0px"
	 viewBox="0 0 1604 806" style="enable-background:new 0 0 1604 806;" xml:space="preserve">
<style type="text/css">
	.st0{fill:#292E3D;}
</style>
<g>
	<g>
		<rect x="635.2" y="352.8" class="st0" width="334.5" height="15.6"/>
		<polygon class="st0" points="830.8,212.8 830.8,202.9 776.4,229.6 776.4,239.5 		"/>
		<polygon class="st0" points="743.9,255.5 743.9,245.5 689.4,272.2 689.4,282.2 		"/>
		<polygon class="st0" points="863.3,196.9 913.3,172.4 913.3,162.4 859,189.1 863.3,189.1 		"/>
		<polygon class="st0" points="776.4,280.9 776.4,290.8 830.8,264.1 830.8,254.1 		"/>
		<polygon class="st0" points="689.4,323.5 689.4,333.4 743.9,306.7 743.9,296.8 		"/>
		<polygon class="st0" points="863.3,238.2 863.3,248.2 913.3,223.7 913.3,213.7 		"/>
		<polygon class="st0" points="656.9,195.8 656.9,343.3 689.4,343.3 689.4,333.4 689.4,323.5 689.4,282.2 689.4,272.2 689.4,195.8 
					"/>
		<polygon class="st0" points="743.9,214.9 743.9,245.5 743.9,255.5 743.9,296.8 743.9,306.7 743.9,343.3 776.4,343.3 776.4,290.8 
			776.4,280.9 776.4,239.5 776.4,229.6 776.4,214.9 		"/>
		<polygon class="st0" points="859,189.1 830.8,189.1 830.8,202.9 830.8,212.8 830.8,254.1 830.8,264.1 830.8,343.3 863.3,343.3 
			863.3,248.2 863.3,238.2 863.3,196.9 863.3,189.1 		"/>
		<polygon class="st0" points="913.3,130.4 913.3,162.4 913.3,172.4 913.3,213.7 913.3,223.7 913.3,343.3 945.8,343.3 945.8,130.4 
					"/>
		<path class="st0" d="M945.8,49.8h-50l13,13L765.5,163.2l-82.2-66.6l-49,33.4v46l49-33.4l73.5,59.5c5.1,4.1,12.4,4.3,17.7,0.4
			L932,86l13.8,13.8V49.8z"/>
	</g>
	<g>
		<g>
			<path class="st0" d="M87.3,625h-17c-0.8,0-1.3-0.7-1.2-1.4l18.4-158.7c0.3-2.6,3.8-3.2,4.9-0.8L152.8,589L213.2,464
				c1.1-2.3,4.6-1.8,4.9,0.8l18.4,158.7c0.1,0.7-0.5,1.4-1.2,1.4h-17c-0.6,0-1.2-0.5-1.2-1.1l-11.8-107.6l-50.1,105.3
				c-0.9,2-3.8,2-4.7,0l-50.1-105.3L88.5,623.8C88.4,624.5,87.9,625,87.3,625z"/>
			<path class="st0" d="M261.2,511.7c4.1-10,9.8-18.8,17.1-26.2s16-13.3,26-17.5s20.8-6.3,32.4-6.3c11.8,0,22.6,2.1,32.5,6.3
				c9.9,4.2,18.5,10,25.9,17.5s13.1,16.2,17.1,26.2c4.1,10,6.1,21,6.1,32.8c0,11.7-2,22.5-6.1,32.6c-4.1,10.1-9.8,18.9-17.1,26.3
				s-16,13.3-25.9,17.5c-9.9,4.2-20.7,6.3-32.5,6.3c-11.7,0-22.5-2.1-32.4-6.3c-10-4.2-18.6-10-26-17.5s-13.1-16.2-17.1-26.3
				c-4.1-10.1-6.1-21-6.1-32.6C255.1,532.7,257.1,521.8,261.2,511.7z M283.7,576.9c5.3,9.5,12.5,17,21.7,22.5
				c9.2,5.5,19.6,8.3,31.3,8.3c11.8,0,22.3-2.8,31.4-8.3s16.3-13,21.6-22.5c5.3-9.5,7.9-20.3,7.9-32.4s-2.6-22.9-7.9-32.4
				c-5.3-9.5-12.5-17-21.6-22.5c-9.1-5.5-19.6-8.3-31.4-8.3c-11.7,0-22.1,2.8-31.3,8.3c-9.2,5.5-16.4,13-21.7,22.5
				c-5.3,9.5-7.9,20.3-7.9,32.4S278.4,567.4,283.7,576.9z"/>
			<path class="st0" d="M587.3,465.3v161.2c0,2.4-2.9,3.5-4.5,1.8L465.5,505.2v118.5c0,0.7-0.6,1.3-1.3,1.3h-17
				c-0.7,0-1.3-0.6-1.3-1.3V462.5c0-2.4,2.9-3.5,4.5-1.8l117.4,123.1V465.3c0-0.7,0.6-1.3,1.3-1.3h17
				C586.8,464,587.3,464.6,587.3,465.3z"/>
			<path class="st0" d="M714.8,482.4V464h-82.1H624h-9.6c-0.7,0-1.3,0.6-1.3,1.3v158.4c0,0.7,0.6,1.3,1.3,1.3h9.6h8.7h80.8
				c0.7,0,1.3-0.6,1.3-1.3v-15.9c0-0.7-0.6-1.3-1.3-1.3h-80.8v-52.8h76.2c0.7,0,1.3-0.6,1.3-1.3v-15.9c0-0.7-0.6-1.3-1.3-1.3h-76.2
				v-53H714.8z"/>
			<path class="st0" d="M858.7,466l-52.2,78.4v79.4c0,0.7-0.6,1.3-1.3,1.3h-17c-0.7,0-1.3-0.6-1.3-1.3v-79.1L734.7,466
				c-0.6-0.8,0-2,1-2h18.8c0.4,0,0.8,0.2,1,0.5l41,61.7l41.2-61.7c0.2-0.3,0.6-0.5,1-0.5h18.8C858.6,464,859.2,465.1,858.7,466z"/>
		</g>
		<g>
			<path class="st0" d="M1044.9,461.4H943c-0.6,0-1.2,0.5-1.2,1.2v16.4c0,0.6,0.5,1.2,1.2,1.2h41v145.2h19.9V480.1h41
				c0.6,0,1.2-0.5,1.2-1.2v-16.4C1046.1,461.9,1045.6,461.4,1044.9,461.4z"/>
			<path class="st0" d="M1032.1,625.3h18.9c0.5,0,0.9-0.3,1.1-0.7l19.7-46.6h63.5l19.8,46.6c0.2,0.4,0.6,0.7,1.1,0.7h18.9
				c0.8,0,1.4-0.9,1.1-1.6l-70.3-159.1c-0.8-1.9-3.5-1.9-4.4,0l-70.3,159.1C1030.7,624.4,1031.3,625.3,1032.1,625.3z M1127.7,559.9
				h-48.3l24.1-56.8L1127.7,559.9z"/>
			<path class="st0" d="M1217,461.4h-17.6c-0.6,0-1.2,0.5-1.2,1.2v161.6c0,0.6,0.5,1.2,1.2,1.2h82c0.6,0,1.2-0.5,1.2-1.2v-16.4
				c0-0.6-0.5-1.2-1.2-1.2h-63.2v-144C1218.2,461.9,1217.7,461.4,1217,461.4z"/>
			<path class="st0" d="M1409.9,461.4h-21.4c-0.3,0-0.6,0.1-0.9,0.4l-64,70.2v-69.4c0-0.6-0.5-1.2-1.2-1.2h-17.6
				c-0.6,0-1.2,0.5-1.2,1.2v161.6c0,0.6,0.5,1.2,1.2,1.2h17.6c0.6,0,1.2-0.5,1.2-1.2v-78.4l67.6,79.1c0.2,0.3,0.5,0.4,0.9,0.4h21.5
				c1,0,1.5-1.2,0.9-1.9l-72.8-85.2l69.2-74.9C1411.4,462.6,1410.9,461.4,1409.9,461.4z"/>
			<path class="st0" d="M1531,561.5c-2.7-5.4-6.1-10-10.2-13.8c-4.1-3.8-8.6-7-13.5-9.5c-4.8-2.5-9.4-4.5-13.8-6.1
				c-9.5-3.3-17.1-6.6-22.6-10c-5.5-3.4-9.5-6.9-11.8-10.8c-2.3-3.8-3.5-8-3.5-12.5c0-5.3,2-10.1,6.1-14.4
				c4.1-4.3,10.5-6.4,19.4-6.4c6.4,0,11.8,1.3,16.3,3.7c4.4,2.5,8.2,5.7,11.4,9.6c2.8,3.6,5.2,7.2,7.2,10.9c0.3,0.6,1,0.8,1.6,0.5
				l15.1-8.7c0.5-0.3,0.7-1,0.5-1.5c-2.6-5.4-6.1-10.6-10.6-15.5c-4.7-5.2-10.3-9.5-17-12.9c-6.6-3.4-14.4-5-23.3-5
				c-9.2,0-17.4,1.8-24.6,5.5c-7.2,3.7-12.8,8.7-16.9,15.1c-4.1,6.4-6.1,13.7-6.1,21.8c0,7.5,1.4,13.8,4.3,19
				c2.9,5.2,6.6,9.5,11.1,13c4.5,3.5,9.3,6.4,14.3,8.7c5,2.3,9.5,4.1,13.6,5.5c6.2,2.2,12.1,4.6,17.7,7.4c5.5,2.7,10,6.3,13.5,10.7
				c3.4,4.4,5.2,10.2,5.2,17.6c0,7.5-2.7,13.7-8,18.5c-5.3,4.8-12.3,7.3-21.1,7.3c-6.6,0-12.4-1.4-17.6-4.2
				c-5.2-2.8-9.8-6.7-13.9-11.7c-3.9-4.7-7.6-10.1-11.2-16.3c-0.3-0.6-1.1-0.8-1.6-0.4l-14,9.5c-0.5,0.3-0.7,1-0.4,1.5
				c3.5,6.8,8,13.3,13.5,19.3c5.7,6.3,12.3,11.4,19.9,15.2c7.6,3.8,15.8,5.7,24.7,5.7c6.6,0,12.8-1.1,18.8-3.3
				c6-2.2,11.4-5.3,16.2-9.4c4.8-4.1,8.5-9,11.2-14.8c2.7-5.8,4.1-12.3,4.1-19.4C1535,573.3,1533.7,566.9,1531,561.5z"/>
		</g>
	</g>
	<path class="st0" d="M583.4,744.5c0-2-0.4-3.6-1.2-4.8c-0.8-1.3-1.8-2.4-3-3.2c-1.2-0.9-2.5-1.6-4-2.2c-1.5-0.6-2.8-1.2-4-1.8
		c-1.3-0.6-2.3-1.3-3.2-2.1c-0.9-0.8-1.4-1.9-1.4-3.2c0-1.5,0.6-2.6,1.8-3.1c1.1-0.5,2.2-0.8,3.3-0.8c0.8,0,1.7,0.1,2.5,0.3
		c0.8,0.2,1.5,0.5,2.1,0.7c0.6,0.3,1.1,0.5,1.5,0.8c0.1,0.1,0.3,0.2,0.3,0.2l3.7-5c-1.3-1.3-2.9-2.2-4.8-2.9c-2-0.7-3.9-1.1-5.6-1.1
		c-1.3,0-2.7,0.2-4.2,0.6c-1.4,0.4-2.7,1-3.9,1.9c-1.2,0.9-2.1,2-2.9,3.3c-0.7,1.4-1.1,3.1-1.1,5.1c0,2.1,0.4,3.9,1.2,5.2
		c0.8,1.3,1.8,2.5,3,3.4c1.2,0.9,2.5,1.6,4,2.2c1.5,0.6,2.9,1.2,4.1,1.7c1.3,0.6,2.3,1.2,3.2,1.9c0.9,0.7,1.4,1.7,1.4,3
		c0,1.4-0.6,2.5-1.7,3.3c-1.1,0.8-2.5,1.2-4,1.2c-1,0-1.9-0.1-2.9-0.4c-0.9-0.3-1.8-0.6-2.6-0.9c-0.8-0.3-1.4-0.7-1.9-1
		c-0.2-0.1-0.4-0.2-0.5-0.3c-0.1,0.1-0.2,0.2-0.3,0.3c-0.3,0.4-0.8,0.9-1.3,1.5c-0.5,0.6-1,1.3-1.6,1.9c-0.4,0.6-0.8,1-1.2,1.4
		c1.3,1.4,3.1,2.5,5.2,3.3c2.3,0.8,4.6,1.2,7,1.2c4,0,7.2-1.1,9.5-3.3C582.3,750.6,583.4,747.8,583.4,744.5z"/>
	<rect x="615.9" y="717.3" class="st0" width="7.1" height="38"/>
	<path class="st0" d="M622.7,698.6c-1-0.9-2-1.4-3.2-1.4c-1.1,0-2.2,0.5-3.2,1.4c-1,0.9-1.5,2-1.5,3.4c0,1.4,0.5,2.5,1.5,3.4
		c1,0.9,2.1,1.3,3.2,1.3c1.1,0,2.2-0.4,3.2-1.3c1-0.9,1.4-2,1.4-3.4C624.2,700.6,623.7,699.5,622.7,698.6z"/>
	<path class="st0" d="M680.3,744.5c0-2-0.4-3.6-1.2-4.8c-0.8-1.3-1.8-2.4-3-3.2c-1.2-0.9-2.5-1.6-4-2.2c-1.5-0.6-2.8-1.2-4-1.8
		c-1.3-0.6-2.3-1.3-3.2-2.1c-0.9-0.8-1.4-1.9-1.4-3.2c0-1.5,0.6-2.6,1.8-3.1c1.1-0.5,2.2-0.8,3.3-0.8c0.8,0,1.7,0.1,2.5,0.3
		c0.8,0.2,1.5,0.5,2.1,0.7c0.6,0.3,1.1,0.5,1.5,0.8c0.1,0.1,0.3,0.2,0.3,0.2l3.7-5c-1.3-1.3-2.9-2.2-4.8-2.9c-2-0.7-3.9-1.1-5.6-1.1
		c-1.3,0-2.7,0.2-4.2,0.6c-1.4,0.4-2.7,1-3.9,1.9c-1.2,0.9-2.1,2-2.9,3.3c-0.7,1.4-1.1,3.1-1.1,5.1c0,2.1,0.4,3.9,1.2,5.2
		c0.8,1.3,1.8,2.5,3,3.4c1.2,0.9,2.5,1.6,4,2.2c1.5,0.6,2.9,1.2,4.1,1.7c1.3,0.6,2.3,1.2,3.2,1.9c0.9,0.7,1.4,1.7,1.4,3
		c0,1.4-0.6,2.5-1.7,3.3c-1.1,0.8-2.5,1.2-4,1.2c-1,0-1.9-0.1-2.9-0.4c-0.9-0.3-1.8-0.6-2.6-0.9c-0.8-0.3-1.4-0.7-1.9-1
		c-0.2-0.1-0.4-0.2-0.5-0.3c-0.1,0.1-0.2,0.2-0.3,0.3c-0.3,0.4-0.8,0.9-1.3,1.5c-0.5,0.6-1.1,1.3-1.6,1.9c-0.4,0.6-0.8,1-1.2,1.4
		c1.3,1.4,3.1,2.5,5.2,3.3c2.3,0.8,4.6,1.2,7,1.2c4,0,7.2-1.1,9.5-3.3C679.2,750.6,680.3,747.8,680.3,744.5z"/>
	<polygon class="st0" points="723.2,700.2 716.1,700.2 716.1,717.4 709.2,717.4 709.2,723.6 716.1,723.6 716.1,755.2 723.2,755.2 
		723.2,723.6 733.6,723.6 733.6,717.4 723.2,717.4 	"/>
	<path class="st0" d="M792.3,732.3c2.3-0.9,4.4-1.7,6.2-2.4c-1.4-4-3.7-7.3-6.7-9.8c-3.2-2.6-6.9-3.9-11.2-3.9
		c-2.7,0-5.3,0.5-7.7,1.6c-2.4,1.1-4.5,2.5-6.3,4.3c-1.8,1.8-3.3,4-4.3,6.4c-1.1,2.4-1.6,5-1.6,7.7c0,2.7,0.5,5.3,1.6,7.7
		c1.1,2.4,2.5,4.5,4.3,6.3c1.8,1.8,4,3.2,6.4,4.3c2.4,1.1,5.1,1.6,7.9,1.6c2.7,0,5.4-0.5,8-1.5c2.4-0.9,4.6-2.1,6.3-3.6l-5.3-5.2
		c-1.1,1-2.4,1.7-4,2.3c-1.7,0.6-3.5,1-5.2,1c-2.5,0-4.9-0.7-6.9-2c-2.1-1.3-3.7-3.1-4.7-5.2l-0.2-0.4l0.4-0.2
		c2.3-0.9,4.8-1.8,7.4-2.9c2.7-1.1,5.3-2.1,8-3.2C787.2,734.3,789.8,733.2,792.3,732.3z M773.6,735.1c-1.9,0.8-3.7,1.5-5.2,2.1
		l-0.5,0.2v-0.6c0,0,0,0,0-0.2c0-0.2-0.1-0.4-0.1-0.7c0-1.6,0.3-3.2,1-4.7c0.7-1.5,1.6-2.9,2.7-4.1c1.1-1.2,2.5-2.1,4.1-2.8
		c1.6-0.7,3.3-1.1,5.1-1.1c1.7,0,3.4,0.4,5.1,1.2c1.7,0.8,2.9,2,3.7,3.7l0.2,0.4l-0.4,0.2c-1.3,0.5-2.7,1.1-4.3,1.8l-0.3,0.1
		c-1.7,0.7-3.5,1.5-5.4,2.2C777.3,733.5,775.5,734.3,773.6,735.1z"/>
	<path class="st0" d="M888.7,719.4c-2.2-2.1-5.3-3.1-9.2-3.1c-3.7,0.1-6.7,1-8.9,2.8c-2.2,1.8-4.1,4.3-5.6,7.4l-0.6,1.2l-0.2-1.4
		c-0.4-3-1.7-5.4-3.8-7.3c-2.2-1.8-5.2-2.8-8.8-2.8c-3.8,0.1-6.8,1-9.1,2.9c-2.3,1.9-4.1,4.5-5.5,7.8l-0.6,1.5l-0.1-1.6
		c-0.1-1.5-0.2-3.1-0.3-4.7c-0.1-1.5-0.2-3.1-0.3-4.9h-6.2v38h7.1v-18.8c0-1.9,0.3-3.7,0.9-5.2c0.6-1.6,1.4-3,2.5-4.1
		c1.1-1.1,2.4-2.1,3.9-2.7c1.5-0.7,3.3-1,5.2-1c2.7,0.1,4.8,0.9,6.1,2.4c1.3,1.5,2.1,3.2,2.2,5.3l0,24.2h7.1v-18.8
		c0.1-3.8,1.3-7,3.4-9.4c2.2-2.5,5.2-3.7,9-3.7c2.8,0.1,4.9,0.9,6.2,2.4c1.3,1.5,2,3.2,2.1,5.3l0,24.2h7.2v-27.8
		C892.1,724.2,890.9,721.5,888.7,719.4z"/>
	<path class="st0" d="M957,722.5c-0.2-0.5-0.7-1.1-1.3-1.8c-0.7-0.7-1.5-1.4-2.6-2.1c-1.1-0.7-2.4-1.2-3.9-1.7
		c-1.5-0.5-3.2-0.7-5-0.7c-2.7,0-5.3,0.5-7.7,1.6c-2.4,1.1-4.5,2.6-6.3,4.4c-1.8,1.8-3.3,4-4.3,6.5c-1.1,2.4-1.6,5.1-1.6,7.9
		c0,2.6,0.5,5.1,1.5,7.4c1,2.4,2.4,4.5,4.1,6.2c1.7,1.8,3.9,3.2,6.3,4.3c2.4,1.1,5.2,1.6,8,1.6c1.9,0,3.5-0.2,5-0.6
		c1.4-0.4,2.7-0.9,3.8-1.5c1-0.6,1.9-1.2,2.6-1.8c0.7-0.7,1.1-1.2,1.4-1.7l0.7-1.2v5.9h7.2v-38h-6.8l-0.5,6.7L957,722.5z
		 M956.8,741.3c-0.6,1.6-1.6,2.9-2.7,4.1c-1.2,1.2-2.6,2.1-4.2,2.8c-1.6,0.7-3.4,1-5.3,1c-1.9,0-3.7-0.3-5.3-1
		c-1.6-0.7-3-1.6-4.1-2.7c-1.1-1.1-2.1-2.5-2.7-4.1c-0.7-1.6-1-3.3-1-5.2c0-1.8,0.3-3.6,1-5.1c0.7-1.6,1.6-2.9,2.7-4.1
		c1.1-1.1,2.5-2.1,4.1-2.7c1.6-0.7,3.4-1,5.3-1c1.9,0,3.7,0.3,5.3,1c1.6,0.7,3,1.6,4.2,2.7c1.2,1.1,2.1,2.5,2.7,4.1
		c0.6,1.6,1,3.3,1,5.1C957.8,738,957.5,739.7,956.8,741.3z"/>
	<path class="st0" d="M1022.3,744.5c0-2-0.4-3.6-1.2-4.8c-0.8-1.3-1.8-2.4-3-3.2c-1.2-0.9-2.5-1.6-4-2.2c-1.5-0.6-2.8-1.2-4-1.8
		c-1.3-0.6-2.3-1.3-3.2-2.1c-0.9-0.8-1.4-1.9-1.4-3.2c0-1.5,0.6-2.6,1.8-3.1c1.1-0.5,2.2-0.8,3.3-0.8c0.8,0,1.7,0.1,2.5,0.3
		c0.8,0.2,1.5,0.5,2.1,0.7c0.6,0.3,1.1,0.5,1.5,0.8c0.1,0.1,0.3,0.2,0.3,0.2l3.7-5c-1.3-1.3-2.9-2.2-4.8-2.9c-2-0.7-3.9-1.1-5.6-1.1
		c-1.3,0-2.7,0.2-4.2,0.6c-1.4,0.4-2.7,1-3.9,1.9c-1.2,0.9-2.1,2-2.9,3.3c-0.7,1.4-1.1,3.1-1.1,5.1c0,2.1,0.4,3.9,1.2,5.2
		c0.8,1.3,1.8,2.5,3,3.4c1.2,0.9,2.5,1.6,4,2.2c1.5,0.6,2.9,1.2,4.1,1.7c1.3,0.6,2.3,1.2,3.2,1.9c0.9,0.7,1.4,1.7,1.4,3
		c0,1.4-0.6,2.5-1.7,3.3c-1.1,0.8-2.5,1.2-4,1.2c-1,0-1.9-0.1-2.9-0.4c-0.9-0.3-1.8-0.6-2.6-0.9c-0.8-0.3-1.4-0.7-1.9-1
		c-0.2-0.1-0.4-0.2-0.5-0.3c-0.1,0.1-0.2,0.2-0.3,0.3c-0.3,0.4-0.8,0.9-1.3,1.5c-0.5,0.6-1.1,1.3-1.6,1.9c-0.4,0.6-0.8,1-1.2,1.4
		c1.3,1.4,3.1,2.5,5.2,3.3c2.3,0.8,4.6,1.2,7,1.2c4,0,7.2-1.1,9.5-3.3C1021.2,750.6,1022.3,747.8,1022.3,744.5z"/>
</g>
</svg>
