<?xml version="1.0" encoding="utf-8"?>
<!-- Generator: Adobe Illustrator 24.0.1, SVG Export Plug-In . SVG Version: 6.00 Build 0)  -->
<svg version="1.1" id="Camada_1" xmlns="http://www.w3.org/2000/svg" xmlns:xlink="http://www.w3.org/1999/xlink" x="0px" y="0px"
	 viewBox="0 0 500 500" style="enable-background:new 0 0 500 500;" xml:space="preserve">
<style type="text/css">
	.st0{fill-rule:evenodd;clip-rule:evenodd;fill:#292E3D;}
</style>
<path class="st0" d="M372.3,421.3c0,13.5-11,24.5-24.5,24.5H152.1c-13.5,0-24.5-11-24.5-24.5V225.5c0-13.5,11-24.5,24.5-24.5h195.7
	c13.5,0,24.5,11,24.5,24.5V421.3L372.3,421.3z M201.1,103.2c0-27,21.9-48.9,48.9-48.9s48.9,24.5,48.9,48.9v48.9H201v-48.9H201.1z
	 M347.9,152.1v-48.9c0-55-55.3-110-118.3-95.5c-46.4,10.6-77.4,55-77.4,102.6v41.9h-24.5c-27,0-48.9,21.9-48.9,48.9v244.7
	c0,27,21.9,48.9,48.9,48.9h244.7c27,0,48.9-21.9,48.9-48.9V201.1c0-27-21.9-48.9-48.9-48.9h-24.5V152.1z"/>
</svg>
