<?xml version="1.0" encoding="utf-8"?>
<!-- Generator: Adobe Illustrator 24.0.1, SVG Export Plug-In . SVG Version: 6.00 Build 0)  -->
<svg version="1.1" id="Camada_1" xmlns="http://www.w3.org/2000/svg" xmlns:xlink="http://www.w3.org/1999/xlink" x="0px" y="0px"
	 viewBox="0 0 500 500" style="enable-background:new 0 0 500 500;" xml:space="preserve">
<style type="text/css">
	.st0{fill-rule:evenodd;clip-rule:evenodd;fill:#292E3D;}
</style>
<path class="st0" d="M250,250c-53.9,0-97.7-43.8-97.7-97.7s43.8-97.7,97.7-97.7s97.7,43.8,97.7,97.7S303.9,250,250,250 M341.8,266.4
	c33.4-26.8,54.7-68,54.7-114.1C396.5,71.4,330.9,5.8,250,5.8S103.5,71.4,103.5,152.3c0,46.2,21.4,87.3,54.7,114.1
	C68.9,300,5.8,383,5.8,494.2h48.8c0-122.1,87.6-195.4,195.4-195.4c107.7,0,195.4,73.3,195.4,195.4h48.8
	C494.2,383,431.1,300,341.8,266.4"/>
</svg>
