<?xml version="1.0" encoding="utf-8"?>
<!-- Generator: Adobe Illustrator 24.0.1, SVG Export Plug-In . SVG Version: 6.00 Build 0)  -->
<svg version="1.1" id="Camada_1" xmlns="http://www.w3.org/2000/svg" xmlns:xlink="http://www.w3.org/1999/xlink" x="0px" y="0px"
	 viewBox="0 0 500 500" style="enable-background:new 0 0 500 500;" xml:space="preserve">
<style type="text/css">
	.st0{fill-rule:evenodd;clip-rule:evenodd;fill:#FFFFFF;}
</style>
<g>
	<circle class="st0" cx="250" cy="182.4" r="61.4"/>
	<path class="st0" d="M250,1.9C113,1.9,1.9,113,1.9,250S113,498.1,250,498.1S498.1,387,498.1,250S387,1.9,250,1.9z M372.9,397.4
		c0-76.8-55.2-122.9-122.9-122.9c-67.8,0-122.9,46.1-122.9,122.9H96.4c0-69.9,39.7-122.1,95.8-143.3c-20.9-16.9-34.4-42.7-34.4-71.8
		c0-50.9,41.3-92.1,92.1-92.1s92.1,41.3,92.1,92.1c0,29-13.4,54.9-34.4,71.8c56.2,21.1,95.8,73.3,95.8,143.3H372.9z"/>
</g>
</svg>
