<?xml version="1.0" encoding="utf-8"?>
<!-- Generator: Adobe Illustrator 24.0.1, SVG Export Plug-In . SVG Version: 6.00 Build 0)  -->
<svg version="1.1" id="Camada_1" xmlns="http://www.w3.org/2000/svg" xmlns:xlink="http://www.w3.org/1999/xlink" x="0px" y="0px"
	 viewBox="0 0 500 500" style="enable-background:new 0 0 500 500;" xml:space="preserve">
<style type="text/css">
	.st0{fill:#FFFFFF;}
</style>
<g>
	<path class="st0" d="M102.5,112.5h-49C27.9,112.5,7,132.3,7,156.7v280c0,24.4,20.9,44.2,46.5,44.2h49c25.6,0,46.5-19.8,46.5-44.2
		v-280C149,132.3,128.1,112.5,102.5,112.5z M105,413.3c0,14.2-12.1,25.8-27,25.8c-14.9,0-27-11.6-27-25.8V180
		c0-14.2,12.1-25.8,27-25.8c14.9,0,27,11.6,27,25.8V413.3z"/>
	<path class="st0" d="M274,19.2h-49c-25.6,0-46.5,19.8-46.5,44.2v373.3c0,24.4,20.9,44.2,46.5,44.2h49c25.6,0,46.5-19.8,46.5-44.2
		V63.3C320.5,39,299.6,19.2,274,19.2z M276.5,413.3c0,14.2-12.1,25.8-27,25.8c-14.9,0-27-11.6-27-25.8V86.7
		c0-14.2,12.1-25.8,27-25.8c14.9,0,27,11.6,27,25.8V413.3z"/>
	<path class="st0" d="M445.5,252.5h-49c-25.6,0-46.5,19.8-46.5,44.2v140c0,24.4,20.9,44.2,46.5,44.2h49c25.6,0,46.5-19.8,46.5-44.2
		v-140C492,272.3,471.1,252.5,445.5,252.5z M448,413.3c0,14.2-12.1,25.8-27,25.8s-27-11.6-27-25.8V320c0-14.2,12.1-25.8,27-25.8
		s27,11.6,27,25.8V413.3z"/>
</g>
</svg>
