<?xml version="1.0" encoding="utf-8"?>
<!-- Generator: Adobe Illustrator 24.0.1, SVG Export Plug-In . SVG Version: 6.00 Build 0)  -->
<svg version="1.1" id="Camada_1" xmlns="http://www.w3.org/2000/svg" xmlns:xlink="http://www.w3.org/1999/xlink" x="0px" y="0px"
	 viewBox="0 0 500 500" style="enable-background:new 0 0 500 500;" xml:space="preserve">
<style type="text/css">
	.st0{fill:#FFFFFF;}
</style>
<g>
	<path class="st0" d="M275.1,313.5l-1.9-0.8l1.4-1.6c15.7-18.3,24-40.3,24-63.7c0-54.3-44.2-98.4-98.5-98.4s-98.5,44.1-98.5,98.4
		c0,23.4,8.3,45.4,24,63.7l1.4,1.6l-1.9,0.8C51.6,343.4,2.1,417.5,1.5,498.1h47c0.4-39.8,16-77.5,44.1-106.3
		c28.6-29.4,66.3-45.7,106.4-46c0.3,0,0.5,0,0.7,0.1c0.2,0,0.4,0,0.7,0c0.2,0,0.5-0.1,0.7-0.1c40,0.3,77.8,16.6,106.4,46
		c28.1,28.9,43.7,66.6,44.1,106.3h47C397.9,417.5,348.4,343.4,275.1,313.5z M201.1,298.8L201.1,298.8L201.1,298.8
		c-0.2,0-0.5,0-0.7,0c-0.3,0-0.6,0-0.8,0c-0.2,0-0.4,0-0.6,0c-27.8-0.6-50.4-23.6-50.4-51.4c0-28.4,23.1-51.5,51.5-51.5
		c28.4,0,51.5,23.1,51.5,51.5C251.5,275.2,228.9,298.2,201.1,298.8z"/>
	<polygon class="st0" points="423.5,1.5 376.5,1.5 376.5,76.4 301.5,76.4 301.5,123.4 376.5,123.4 376.5,198.3 423.5,198.3 
		423.5,123.4 498.5,123.4 498.5,76.4 423.5,76.4 	"/>
</g>
</svg>
