<?xml version="1.0" encoding="utf-8"?>
<!-- Generator: Adobe Illustrator 24.0.1, SVG Export Plug-In . SVG Version: 6.00 Build 0)  -->
<svg version="1.1" id="Camada_1" xmlns="http://www.w3.org/2000/svg" xmlns:xlink="http://www.w3.org/1999/xlink" x="0px" y="0px"
	 viewBox="0 0 500 500" style="enable-background:new 0 0 500 500;" xml:space="preserve">
<style type="text/css">
	.st0{fill-rule:evenodd;clip-rule:evenodd;fill:#FFFFFF;}
</style>
<g>
	<path class="st0" d="M177.9,185.1c0,27,19.3,50.5,57.7,50.5V134.7C196.2,134.7,177.9,159,177.9,185.1z"/>
	<path class="st0" d="M264.4,365.3c39.3,0,57.7-24.4,57.7-50.5c0-27-19.3-50.5-57.7-50.5V365.3z"/>
	<path class="st0" d="M250.5,0.9C112.6,0.9,0.9,112.6,0.9,250.5S112.6,500,250.5,500S500,388.3,500,250.5S388.3,0.9,250.5,0.9z
		 M350.9,314.9c0,40-29.4,79.3-86.5,79.3V423h-28.8v-28.8h-28.8c-31.8,0-57.7-25.8-57.7-57.7h28.8c0,15.9,12.9,28.8,28.8,28.8h28.8
		V264.4c-57.3,0-86.5-39.4-86.5-79.3c0-40,29.4-79.3,86.5-79.3V77h28.8v28.8h28.8c31.8,0,57.7,25.8,57.7,57.7h-28.8
		c0-15.9-12.9-28.8-28.8-28.8h-28.8v100.9C321.7,235.6,350.9,275,350.9,314.9z"/>
</g>
</svg>
