<?xml version="1.0" encoding="utf-8"?>
<!-- Generator: Adobe Illustrator 24.0.1, SVG Export Plug-In . SVG Version: 6.00 Build 0)  -->
<svg version="1.1" id="Capa_1" xmlns="http://www.w3.org/2000/svg" xmlns:xlink="http://www.w3.org/1999/xlink" x="0px" y="0px"
	 viewBox="0 0 500 500" style="enable-background:new 0 0 500 500;" xml:space="preserve">
<style type="text/css">
	.st0{fill:#FFFFFF;}
</style>
<g>
	<g>
		<path class="st0" d="M460.8,74.3h-123V56.8c0-29.1-23.6-52.7-52.7-52.7h-70.3c-29.1,0-52.7,23.6-52.7,52.7v17.6h-123
			c-9.7,0-17.6,7.9-17.6,17.6s7.9,17.6,17.6,17.6h19.1L91.9,480c0.8,9.1,8.5,16,17.6,16h281.1c9.1,0,16.7-6.9,17.6-16l33.6-370.5
			h19.1c9.7,0,17.6-7.9,17.6-17.6S470.5,74.3,460.8,74.3z M197.3,56.8c0-9.7,7.9-17.6,17.6-17.6h70.3c9.7,0,17.6,7.9,17.6,17.6v17.6
			H197.3L197.3,56.8L197.3,56.8z M374.5,460.8h-249L93.7,109.5h86.1h226.7L374.5,460.8z"/>
	</g>
</g>
<g>
	<g>
		<path class="st0" d="M197.3,406.9C197.3,406.9,197.3,406.9,197.3,406.9l-17.6-246c-0.7-9.7-9.1-17-18.8-16.3
			c-9.7,0.7-17,9.1-16.3,18.8l17.6,245.9c0.7,9.2,8.3,16.3,17.6,16.3h1.3C190.7,425,198,416.6,197.3,406.9z"/>
	</g>
</g>
<g>
	<g>
		<path class="st0" d="M250,144.6c-9.7,0-17.6,7.9-17.6,17.6v245.9c0,9.7,7.9,17.6,17.6,17.6s17.6-7.9,17.6-17.6V162.2
			C267.6,152.5,259.7,144.6,250,144.6z"/>
	</g>
</g>
<g>
	<g>
		<path class="st0" d="M339.1,144.6c-9.7-0.7-18.1,6.6-18.8,16.3l-17.6,245.9c-0.7,9.7,6.6,18.1,16.2,18.8c0,0,0.1,0,0.1,0h1.2
			c9.2,0,16.9-7.1,17.6-16.3l17.6-245.9C356.1,153.7,348.8,145.3,339.1,144.6z"/>
	</g>
</g>
</svg>
