<?xml version="1.0" encoding="utf-8"?>
<!-- Generator: Adobe Illustrator 24.0.1, SVG Export Plug-In . SVG Version: 6.00 Build 0)  -->
<svg version="1.1" id="Camada_1" xmlns="http://www.w3.org/2000/svg" xmlns:xlink="http://www.w3.org/1999/xlink" x="0px" y="0px"
	 viewBox="0 0 500 500" style="enable-background:new 0 0 500 500;" xml:space="preserve">
<style type="text/css">
	.st0{fill:#FFFFFF;}
</style>
<g>
	<path class="st0" d="M463.7,184.3L287.2,17.5c-20.8-19.7-54.8-19.8-75.7-0.1L35.4,182.5c-4.8,4.5-7.4,10.5-7.4,16.8v254.6
		c0,26.2,22,44.6,53.4,44.6h84c31.5,0,53.4-18.3,53.4-44.6v-26.4c0-16,13.7-28.9,30.6-28.9c16.9,0,30.6,13,30.6,28.9v26.4
		c0,26.2,22,44.6,53.4,44.6h84c31.5,0,53.4-18.3,53.4-44.6V201.1C471,194.8,468.4,188.8,463.7,184.3z M420.1,427.4
		c0,14.6-11.4,23.4-30.6,23.4h-28c-19.2,0-30.6-8.7-30.6-23.4v-26.4c0-26.3-22.9-55.7-53.4-55.7h-56c-30.6,0-53.4,29.4-53.4,55.7
		v26.4c0,14.6-11.4,23.4-30.6,23.4h-28c-19.2,0-30.6-8.7-30.6-23.4V214.9c0-4.2,1.7-8.2,4.9-11.2L227.6,68.3
		c11.9-11.2,31.3-11.2,43.1,0l144.4,135.9c3.1,3,4.9,7,4.9,11.2V427.4z"/>
</g>
</svg>
