<?xml version="1.0" encoding="utf-8"?>
<!-- Generator: Adobe Illustrator 24.0.1, SVG Export Plug-In . SVG Version: 6.00 Build 0)  -->
<svg version="1.1" id="Camada_1" xmlns="http://www.w3.org/2000/svg" xmlns:xlink="http://www.w3.org/1999/xlink" x="0px" y="0px"
	 viewBox="0 0 500 500" style="enable-background:new 0 0 500 500;" xml:space="preserve">
<style type="text/css">
	.st0{fill:#FFFFFF;}
</style>
<g>
	<path class="st0" d="M445.8,18.8h-49.1c-25.7,0-46.6,19.8-46.6,44.2V437c0,24.4,20.9,44.2,46.6,44.2h49.1
		c25.7,0,46.6-19.8,46.6-44.2V63C492.4,38.6,471.5,18.8,445.8,18.8z M448.3,413.6c0,14.3-12.1,25.9-27,25.9c-14.9,0-27-11.6-27-25.9
		V86.4c0-14.3,12.1-25.9,27-25.9c14.9,0,27,11.6,27,25.9V413.6z"/>
	<path class="st0" d="M102.3,112.3H53.2c-25.7,0-46.6,19.8-46.6,44.2V437c0,24.4,20.9,44.2,46.6,44.2h49.1
		c25.7,0,46.6-19.8,46.6-44.2V156.5C148.8,132.1,127.9,112.3,102.3,112.3z M104.8,413.6c0,14.3-12.1,25.9-27,25.9s-27-11.6-27-25.9
		V179.9c0-14.3,12.1-25.9,27-25.9s27,11.6,27,25.9V413.6z"/>
	<path class="st0" d="M274,252.5H225c-25.7,0-46.6,19.8-46.6,44.2V437c0,24.4,20.9,44.2,46.6,44.2H274c25.7,0,46.6-19.8,46.6-44.2
		V296.7C320.6,272.3,299.7,252.5,274,252.5z M276.5,413.6c0,14.3-12.1,25.9-27,25.9c-14.9,0-27-11.6-27-25.9v-93.5
		c0-14.3,12.1-25.9,27-25.9c14.9,0,27,11.6,27,25.9V413.6z"/>
</g>
</svg>
