<?xml version="1.0" encoding="utf-8"?>
<!-- Generator: Adobe Illustrator 24.0.1, SVG Export Plug-In . SVG Version: 6.00 Build 0)  -->
<svg version="1.1" id="Camada_1" xmlns="http://www.w3.org/2000/svg" xmlns:xlink="http://www.w3.org/1999/xlink" x="0px" y="0px"
	 viewBox="0 0 500 500" style="enable-background:new 0 0 500 500;" xml:space="preserve">
<style type="text/css">
	.st0{fill-rule:evenodd;clip-rule:evenodd;fill:#FFFFFF;}
</style>
<path class="st0" d="M295.7,299.7l130.5-136.3c7.7-8,19.9-2.3,19.9,8.9V231c0,14,11.9,38,25.4,38H471c13.5,0,24-24,24-38V104.3
	c0-28-20-38-47-38H325.8c-13.5,0-26.3,5-26.3,19v3.2c0,14,12.8,28.5,26.3,28.5h59.7c10.9,0,16.3,7.3,8.6,15.3L278.4,249.1
	c-9.5,9.9-25,8.3-34.5-1.6l-10.1-11.3c-19.1-19.8-50-20.2-69.1-0.4L10.8,390.6c-9.6,9.9-4.5,25.8-4.5,35.7v-0.1
	c24.4,9.9,29.5,9.9,39.1,0l134.3-137c9.6-9.9,26.1-9.9,35.7,0l10.6,10.4C245,319.5,276.6,319.6,295.7,299.7"/>
</svg>
