<?xml version="1.0" encoding="utf-8"?>
<!-- Generator: Adobe Illustrator 24.0.1, SVG Export Plug-In . SVG Version: 6.00 Build 0)  -->
<svg version="1.1" id="Camada_1" xmlns="http://www.w3.org/2000/svg" xmlns:xlink="http://www.w3.org/1999/xlink" x="0px" y="0px"
	 viewBox="0 0 500 500" style="enable-background:new 0 0 500 500;" xml:space="preserve">
<style type="text/css">
	.st0{fill-rule:evenodd;clip-rule:evenodd;fill:#FFFFFF;}
</style>
<path class="st0" d="M229.2,229.2c-55.4,0-83.3-33.9-83.3-72.9c0-37.7,26.5-72.9,83.3-72.9V229.2L229.2,229.2z M354.2,343.8
	L354.2,343.8c0,37.7-26.5,72.9-83.3,72.9V270.8C326.3,270.8,354.2,304.8,354.2,343.8L354.2,343.8L354.2,343.8z M395.8,343.8
	L395.8,343.8c0-57.7-42.2-114.6-125-114.6V83.3h41.7c23,0,41.7,18.6,41.7,41.7h41.7c0-46-37.3-83.3-83.3-83.3h-41.7V0h-41.7v41.7
	c-82.5,0-125,56.7-125,114.6c0,57.7,42.2,114.6,125,114.6v145.8h-41.7c-23,0-41.7-18.6-41.7-41.7h-41.7c0,46,37.3,83.3,83.3,83.3
	h41.7V500h41.7v-41.7C353.3,458.3,395.8,401.6,395.8,343.8L395.8,343.8L395.8,343.8z M395.8,343.8"/>
</svg>
