<?xml version="1.0" encoding="utf-8"?>
<!-- Generator: Adobe Illustrator 24.0.1, SVG Export Plug-In . SVG Version: 6.00 Build 0)  -->
<svg version="1.1" id="Camada_1" xmlns="http://www.w3.org/2000/svg" xmlns:xlink="http://www.w3.org/1999/xlink" x="0px" y="0px"
	 viewBox="0 0 500 500" style="enable-background:new 0 0 500 500;" xml:space="preserve">
<style type="text/css">
	.st0{fill:#FFFFFF;}
</style>
<g>
	<path class="st0" d="M478.3,264.5L393.8,180c-2.1-2.1-43.9-43.9-84.4-84.4l-79.7-79.7c-0.7-0.7-1.3-1.3-1.7-1.8l0,0l0,0l0,0
		c-4.5-4.4-10.4-6.9-16.6-6.9h-155c-27.1,0-49.1,22-49.1,49v155c0,6.3,2.4,12.2,6.9,16.6l250.3,250.3c9.3,9.3,21.6,14.4,34.7,14.4
		s25.4-5.1,34.7-14.4l21.4-21.4c39.6-39.6,122.1-122.1,123-123l0.7,0.7l-0.7-0.7C497.4,314.8,497.4,283.7,478.3,264.5z M427,318.7
		L318.7,427c-5.4,5.4-12.4,8-19.5,8s-14.1-2.7-19.5-8L58.7,205.9c-2.8-2.8-4.3-6.5-4.3-10.5V81.9c0-15.2,12.3-27.6,27.5-27.6h113.6
		c3.9,0,7.7,1.5,10.4,4.3L427,279.8C437.7,290.5,437.7,308,427,318.7z"/>
	<path class="st0" d="M151.7,128.2c0-13-10.6-23.5-23.5-23.5c-13,0-23.5,10.6-23.5,23.5c0,13,10.6,23.5,23.5,23.5
		C141.1,151.7,151.7,141.1,151.7,128.2z"/>
</g>
</svg>
