<?xml version="1.0" encoding="utf-8"?>
<!-- Generator: Adobe Illustrator 24.0.1, SVG Export Plug-In . SVG Version: 6.00 Build 0)  -->
<svg version="1.1" id="Capa_1" xmlns="http://www.w3.org/2000/svg" xmlns:xlink="http://www.w3.org/1999/xlink" x="0px" y="0px"
	 viewBox="0 0 500 500" style="enable-background:new 0 0 500 500;" xml:space="preserve">
<style type="text/css">
	.st0{fill:#FFFFFF;}
</style>
<g>
	<g id="Layer_2_16_">
		<g>
			<path class="st0" d="M298.8,448.3c-4,1-8,1.9-12.1,2.6c-10.5,2-17.5,12.1-15.5,22.6c1,5.2,3.9,9.5,7.9,12.3
				c4.1,2.9,9.4,4.2,14.7,3.2c4.8-0.9,9.6-1.9,14.4-3.1c10.4-2.6,16.7-13.1,14.1-23.5C319.7,452.1,309.2,445.8,298.8,448.3z"/>
			<path class="st0" d="M442.3,188.2c1.4,4.1,4,7.4,7.2,9.8c4.9,3.4,11.2,4.6,17.3,2.6c10.2-3.4,15.7-14.4,12.3-24.5
				c-1.5-4.6-3.2-9.3-5-13.8c-4-10-15.3-14.8-25.2-10.8c-9.9,4-14.8,15.3-10.8,25.2C439.6,180.4,441,184.3,442.3,188.2z"/>
			<path class="st0" d="M361.8,420.6c-3.4,2.3-7,4.4-10.5,6.5c-9.3,5.4-12.5,17.2-7.1,26.5c1.5,2.5,3.4,4.6,5.6,6.2
				c6,4.2,14.1,4.8,20.9,0.9c4.2-2.4,8.4-5,12.5-7.7c8.9-5.9,11.4-17.9,5.5-26.9C382.8,417.2,370.8,414.7,361.8,420.6z"/>
			<path class="st0" d="M491.2,242.4c-0.4-10.7-9.4-19.1-20.2-18.6c-10.7,0.4-19,9.4-18.6,20.2c0.2,4.1,0.2,8.2,0.1,12.3
				c-0.2,6.7,3.1,12.7,8.2,16.3c3,2.1,6.7,3.4,10.7,3.5c10.7,0.2,19.6-8.3,19.8-19C491.4,252.2,491.4,247.3,491.2,242.4z"/>
			<path class="st0" d="M439.1,369.6c-8.6-6.4-20.7-4.7-27.2,3.9c-2.5,3.3-5.1,6.5-7.7,9.6c-6.9,8.2-6,20.4,2.2,27.4
				c0.5,0.4,0.9,0.8,1.4,1.1c8.1,5.7,19.4,4.4,25.9-3.3c3.2-3.7,6.3-7.6,9.2-11.5C449.4,388.2,447.7,376,439.1,369.6z"/>
			<path class="st0" d="M467.7,299.4c-10.2-3.2-21.1,2.5-24.3,12.7c-1.2,3.9-2.6,7.8-4.1,11.7c-3.2,8.5-0.1,17.8,6.9,22.8
				c1.3,0.9,2.7,1.7,4.3,2.3c10,3.8,21.2-1.2,25-11.2c1.7-4.6,3.4-9.2,4.8-13.9C483.6,313.5,477.9,302.6,467.7,299.4z"/>
			<path class="st0" d="M214.1,451.1c-17.4-3.1-34-8.4-49.8-15.8c-0.2-0.1-0.4-0.2-0.6-0.3c-3.7-1.8-7.4-3.6-11-5.6c0,0,0,0-0.1,0
				c-6.6-3.6-13-7.7-19.3-12.1C42.1,353,20.1,226.4,84.4,135.1c14-19.8,30.9-36.4,49.8-49.5c0.2-0.2,0.5-0.3,0.7-0.5
				c66.5-45.8,156.8-48.9,227.4-1.8l-15.2,21.9c-4.2,6.1-1.6,10.5,5.8,9.9l65.9-5.9c7.4-0.7,11.8-7.1,9.8-14.2l-17.7-63.7
				c-2-7.1-7.1-8-11.3-1.9l-15.2,22c-51.8-34.8-114-48-175.6-37.3c-6.2,1.1-12.3,2.4-18.4,3.9c0,0-0.1,0-0.1,0
				c-0.2,0.1-0.5,0.1-0.7,0.2C136.4,31.8,90,62.8,56.9,107c-0.3,0.3-0.6,0.7-0.8,1c-1.1,1.5-2.2,3-3.3,4.5c-1.7,2.5-3.5,5-5.1,7.6
				c-0.2,0.3-0.4,0.6-0.5,0.9C19.8,163.4,6.6,212.4,8.8,262.2c0,0.2,0,0.3,0,0.5c0.2,4.9,0.6,9.8,1.1,14.7c0,0.3,0.1,0.6,0.2,0.9
				c0.5,4.9,1.2,9.8,2.1,14.7c8.7,50,32.2,94.9,67.5,129.9c0.1,0.1,0.2,0.2,0.3,0.3c0,0,0.1,0,0.1,0.1c9.5,9.4,19.8,18,30.9,25.8
				c29.1,20.5,61.5,34,96.2,40.3c10.6,1.9,20.6-5.1,22.5-15.7C231.7,463.1,224.6,453,214.1,451.1z"/>
			<path class="st0" d="M238.1,94.9c-8.7,0-15.7,7-15.7,15.7v156.5l143.1,74c2.3,1.2,4.8,1.8,7.2,1.8c5.7,0,11.2-3.1,14-8.5
				c4-7.7,1-17.2-6.7-21.2L253.8,248V110.6C253.8,102,246.8,94.9,238.1,94.9z"/>
		</g>
	</g>
</g>
</svg>
