<?xml version="1.0" encoding="utf-8"?>
<!-- Generator: Adobe Illustrator 24.0.1, SVG Export Plug-In . SVG Version: 6.00 Build 0)  -->
<svg version="1.1" id="Camada_1" xmlns="http://www.w3.org/2000/svg" xmlns:xlink="http://www.w3.org/1999/xlink" x="0px" y="0px"
	 viewBox="0 0 500 500" style="enable-background:new 0 0 500 500;" xml:space="preserve">
<style type="text/css">
	.st0{fill:#FFFFFF;}
</style>
<g>
	<path class="st0" d="M445.3,31.3h-49.4c-26.1,0-47.4,20.2-47.4,45v376.3c0,24.8,21.3,45,47.4,45h49.4c26.1,0,47.4-20.2,47.4-45
		V76.3C492.6,51.5,471.4,31.3,445.3,31.3z M447.3,429.1c0,14.1-12,25.5-26.7,25.5s-26.7-11.4-26.7-25.5V99.8
		c0-14.1,12-25.5,26.7-25.5s26.7,11.4,26.7,25.5V429.1z"/>
	<path class="st0" d="M99.6,266.4H50.2c-26.1,0-47.4,20.2-47.4,45v141.1c0,24.8,21.3,45,47.4,45h49.4c26.1,0,47.4-20.2,47.4-45
		V311.5C147,286.6,125.7,266.4,99.6,266.4z M101.6,429.1c0,14.1-12,25.5-26.7,25.5c-14.7,0-26.7-11.4-26.7-25.5V335
		c0-14.1,12-25.5,26.7-25.5c14.7,0,26.7,11.4,26.7,25.5V429.1z"/>
	<path class="st0" d="M272.4,125.3H223c-26.1,0-47.4,20.2-47.4,45v282.2c0,24.8,21.3,45,47.4,45h49.4c26.1,0,47.4-20.2,47.4-45
		V170.4C319.8,145.5,298.5,125.3,272.4,125.3z M274.4,429.1c0,14.1-12,25.5-26.7,25.5S221,443.1,221,429.1V193.9
		c0-14.1,12-25.5,26.7-25.5s26.7,11.4,26.7,25.5V429.1z"/>
</g>
</svg>
