<?xml version="1.0" encoding="utf-8"?>
<!-- Generator: Adobe Illustrator 24.0.1, SVG Export Plug-In . SVG Version: 6.00 Build 0)  -->
<svg version="1.1" id="Camada_1" xmlns="http://www.w3.org/2000/svg" xmlns:xlink="http://www.w3.org/1999/xlink" x="0px" y="0px"
	 viewBox="0 0 500 500" style="enable-background:new 0 0 500 500;" xml:space="preserve">
<style type="text/css">
	.st0{fill:#FFFFFF;}
</style>
<title>Artboard 77</title>
<path class="st0" d="M432.6,412.3c82.3-92.3,82.5-231.6,0.4-324.1c-0.5-0.6-1-1.3-1.5-1.8C341.2-13.8,186.9-21.9,86.8,68.3
	C80.4,74,74.4,80,68.7,86.4c-0.6,0.5-1.1,1.1-1.6,1.8c-82,92.3-82,231.4,0,323.7c0.5,0.6,1,1.3,1.5,1.8
	c90.2,100.2,244.5,108.3,344.7,18.1c6.3-5.7,12.4-11.7,18.1-18.1C431.8,413.2,432.2,412.7,432.6,412.3z M27.1,260.6h95.4
	c0.6,37,5.9,73.8,15.9,109.4c-20.8,5.3-40.9,12.8-60,22.4C47.4,355.3,29.4,309,27.1,260.6z M78.4,107.6c19.2,9.6,39.3,17.1,60,22.4
	c-10,35.6-15.4,72.4-15.9,109.4H26.8C29.2,191,47.3,144.7,78.4,107.6z M473.1,239.4h-95.6c-0.6-37-5.9-73.8-15.9-109.4
	c20.8-5.3,40.9-12.8,60-22.4C452.7,144.7,470.8,191,473.1,239.4z M239.4,122.5c-24.5-0.4-49-3-73.1-7.8
	C183.8,67.3,210,34.4,239.4,28V122.5z M159.7,134.9c26.2,5.4,52.9,8.3,79.7,8.9v95.6h-95.6C144.5,204,149.8,168.9,159.7,134.9z
	 M239.4,260.6v95.6c-26.8,0.5-53.4,3.4-79.7,8.7c-9.8-33.9-15.2-69-15.9-104.3H239.4z M239.4,377.5V472
	c-29.3-6.4-55.6-39.3-73.1-86.6C190.4,380.7,214.8,378,239.4,377.5z M260.6,377.5c24.5,0.4,49,3,73.1,7.8
	c-17.5,47.3-43.8,80.1-73.1,86.6V377.5z M340.3,365c-26.2-5.3-52.9-8.2-79.7-8.7v-95.6h95.6c-0.7,35.4-6.1,70.5-15.9,104.5V365z
	 M260.6,239.4v-95.6c26.8-0.5,53.4-3.4,79.7-8.7c9.8,33.9,15.2,69,15.9,104.3H260.6z M260.6,122.5V28c29.3,6.4,55.6,39.3,73.1,86.6
	C309.6,119.3,285.2,122,260.6,122.5z M355,109.8c-9-27.4-23.6-52.6-42.8-74.1c35.6,10.4,68,29.5,94.4,55.5
	C390,99,372.7,105.2,355,109.7V109.8z M145,109.8c-17.8-4.5-35.1-10.7-51.6-18.4c26.4-26.1,58.8-45.3,94.4-55.7
	c-19.2,21.5-33.7,46.6-42.8,74L145,109.8z M145,390.5c9,27.3,23.6,52.5,42.8,74c-35.6-10.4-68.1-29.6-94.4-55.7
	c16.6-7.8,33.9-13.9,51.6-18.4L145,390.5z M355,390.5c17.8,4.5,35.1,10.7,51.6,18.4c-26.4,26-58.8,45-94.4,55.4
	c19.2-21.5,33.7-46.6,42.8-74V390.5z M361.6,370c10-35.6,15.4-72.4,15.9-109.4h95.6c-2.3,48.4-20.4,94.7-51.5,131.8
	C402.5,382.9,382.3,375.3,361.6,370z"/>
</svg>
