<?xml version="1.0" encoding="utf-8"?>
<!-- Generator: Adobe Illustrator 24.0.1, SVG Export Plug-In . SVG Version: 6.00 Build 0)  -->
<svg version="1.1" id="Camada_1" xmlns="http://www.w3.org/2000/svg" xmlns:xlink="http://www.w3.org/1999/xlink" x="0px" y="0px"
	 viewBox="0 0 500 500" style="enable-background:new 0 0 500 500;" xml:space="preserve">
<style type="text/css">
	.st0{fill:#FFFFFF;}
</style>
<g>
	<path class="st0" d="M372.9,498c-3.5,0-7-0.2-10.4-0.5c-51-4.6-112.1-29.8-167.5-69c-70.4-49.8-134.3-126-170.9-204
		c-32.1-68.3-29-138,8.3-186.7C49.8,15.2,69.1,4.4,95,3.1c39.5-1.9,48.7,22.4,58.5,48.1c0.7,1.9,1.4,3.8,2.2,5.8
		c2.7,7.1,5.7,14.1,8.8,21.5c6.2,14.6,12.6,29.6,16.9,45.1c8.6,31.2-6.9,47.1-18.3,58.6c-7.6,7.7-13.5,13.7-15,23.8
		c-1.9,12.8,16.5,35.9,26.4,48.3c1.9,2.4,3.8,4.7,5.4,6.8c22.5,29.3,48.7,53.5,78,71.9c1.3,0.8,2.7,1.7,4.1,2.6
		c14,8.9,37.3,23.8,49.3,17.3c8.8-4.8,14.5-14.5,20.5-24.7c5.7-9.7,11.6-19.8,21.1-26.3c11.5-7.9,25.7-8.5,42.1-1.8
		c17.8,7.2,35,16.8,51.6,26c5.3,2.9,10.7,6,16,8.8c12.6,6.8,29.8,18.2,33.7,39.2c2.4,12.6-0.1,26-5.5,43.7l0.1,0l-2.7,8.3
		c0,0,0,0.1,0,0.1l-2.8,8.4l-0.4-0.1C466.1,475.3,415.8,498,372.9,498z M99.8,29.6c-1.1,0-2.3,0-3.5,0.1c-18,0.9-30.1,7.7-42.9,24.4
		c-31.1,40.6-33.1,100.1-5.3,159.1c34.8,73.9,95.4,146.3,162.2,193.6c51.8,36.6,108.1,60,154.6,64.2c18.3,1.7,40.2-2.8,58.4-11.9
		c19.9-9.9,33.8-24.6,39.3-41.1l0-0.1c12.7-38.5,10.9-46.8-12.8-59.6c-5.5-2.9-11-6-16.3-9c-15.9-8.9-32.4-18-48.7-24.7
		c-15.7-6.4-19.2-1.8-30.2,16.9c-6.8,11.7-15.4,26.2-30.6,34.5c-25.8,14.1-56.2-5.3-76.4-18.2c-1.4-0.9-2.7-1.7-3.9-2.5
		c-31.9-20.1-60.5-46.4-84.9-78.2c-1.5-1.9-3.2-4.1-5.1-6.4c-14.1-17.7-35.5-44.5-31.9-68.8c2.8-18.6,13.6-29.7,22.4-38.5
		c10.4-10.6,16.2-16.4,11.6-32.9c-3.8-13.8-9.9-28-15.7-41.8c-3.1-7.3-6.3-14.9-9.2-22.4c-0.8-2-1.5-4-2.3-5.9
		C119.4,36.5,116.2,29.6,99.8,29.6z"/>
</g>
</svg>
