<?xml version="1.0" encoding="utf-8"?>
<!-- Generator: Adobe Illustrator 24.0.1, SVG Export Plug-In . SVG Version: 6.00 Build 0)  -->
<svg version="1.1"
	 id="Camada_1" xmlns:cc="http://creativecommons.org/ns#" xmlns:dc="http://purl.org/dc/elements/1.1/" xmlns:inkscape="http://www.inkscape.org/namespaces/inkscape" xmlns:rdf="http://www.w3.org/1999/02/22-rdf-syntax-ns#" xmlns:sodipodi="http://sodipodi.sourceforge.net/DTD/sodipodi-0.dtd" xmlns:svg="http://www.w3.org/2000/svg"
	 xmlns="http://www.w3.org/2000/svg" xmlns:xlink="http://www.w3.org/1999/xlink" x="0px" y="0px" viewBox="0 0 500 500"
	 style="enable-background:new 0 0 500 500;" xml:space="preserve">
<style type="text/css">
	.st0{fill-rule:evenodd;clip-rule:evenodd;fill:#FFFFFF;}
</style>
<g transform="translate(0,-952.36218)">
	<path class="st0" d="M162.3,1051.1c-0.8,0.1-1.7,0.3-2.5,0.5c-25,7.7-42.6,21.2-52.2,38.9s-10.8,38.3-6.7,59.4
		c8.2,42,37.3,87.2,74.1,124.8c36.8,37.6,81.1,67.7,123.4,76.5c21.2,4.4,42.2,3.2,60.4-6.3c18.2-9.5,32.7-27.3,41.7-52.7
		c1.7-4.9-0.2-10.3-4.6-13.1l-79.8-50.1l-0.2-0.2c-0.4-0.3-0.8-0.5-1.2-0.7c-1.2-0.8-2.5-1.3-3.9-1.6c-0.1,0-0.2,0-0.4,0
		c-0.3-0.1-0.6-0.1-0.9-0.2c-0.1,0-0.1,0-0.2,0c-1.9-0.1-3.7,0.3-5.4,1.1c-0.6,0.3-1.2,0.6-1.8,1.1c-0.4,0.2-0.7,0.4-1.1,0.7
		c-0.1,0.2-0.2,0.3-0.4,0.5c-0.4,0.4-0.8,0.8-1.2,1.2l-17.5,17.7c-31.7-16-56.2-42.8-78.1-79l16.1-15.9c0.3-0.3,0.6-0.6,0.9-0.9
		c0.2-0.2,0.5-0.5,0.7-0.7c0-0.1,0-0.1,0-0.2c0.2-0.2,0.5-0.5,0.7-0.7c0-0.1,0-0.1,0-0.2c0.1-0.2,0.2-0.3,0.4-0.5
		c0.1-0.1,0.2-0.2,0.4-0.3c0.1-0.3,0.2-0.6,0.4-0.9c0-0.1,0-0.1,0-0.2c0.1-0.1,0.1-0.2,0.2-0.3c0.1-0.2,0.2-0.5,0.4-0.7
		c0.1-0.3,0.1-0.6,0.2-0.9c0-0.1,0-0.1,0-0.2c0.1-0.3,0.1-0.7,0.2-1.1c0-0.1,0-0.1,0-0.2c0-0.3,0-0.6,0-0.9c0-0.1,0-0.1,0-0.2
		c0-0.3,0-0.6,0-0.9c0-0.1,0-0.2,0-0.3c0-0.3-0.1-0.6-0.2-0.9c0-0.1,0-0.1,0-0.2c-0.2-0.7-0.4-1.3-0.7-1.9c0-0.1,0-0.1,0-0.2
		c-0.2-0.5-0.4-1-0.7-1.4l-0.2-0.3c-0.1-0.1-0.1-0.1-0.2-0.2l-49.9-81.9c-2-3.3-5.5-5.3-9.3-5.4
		C163,1051.1,162.6,1051.1,162.3,1051.1L162.3,1051.1z M158.2,1075.8l40.8,67.4l-17,16.8c-3.6,3.6-4.3,9.1-1.8,13.5
		c25.9,44.9,56.6,79.8,99.6,98.8c4.2,1.9,9.2,1,12.4-2.3l18-18l65.8,41.1c-7.3,16.4-16.8,26.2-27.7,31.9c-12.6,6.6-28,7.8-45.5,4.2
		c-35.1-7.3-77.5-34.9-112.1-70.2s-61.3-78.3-68.1-113.3c-3.4-17.5-1.9-32.5,4.6-44.5C133,1090.9,142.4,1082.1,158.2,1075.8
		L158.2,1075.8z"/>
	<path class="st0" d="M250,955.8c-136,0-246.5,110.5-246.5,246.5c0,49.4,14.7,95.7,40.5,135.3l-27.6,92c-1.8,5.9,1.6,12.2,7.5,14
		c2.2,0.7,4.7,0.6,6.9-0.1l90.1-31.1c37.5,23.1,81.8,36.5,129.2,36.5c136.1,0,246.5-110.5,246.5-246.5
		C496.5,1066.3,386.1,955.8,250,955.8L250,955.8z M250,978.2c123.9,0,224.1,100.2,224.1,224.1c0,123.9-100.2,224.1-224.1,224.1
		c-44.9,0-86.7-13.2-121.7-35.8c-2.9-1.9-6.5-2.3-9.8-1.2l-74.5,25.7l22.8-76.1c1-3.2,0.4-6.7-1.5-9.5
		c-25.3-37.1-39.6-80.4-39.6-127.2C25.9,1078.4,126.1,978.2,250,978.2L250,978.2z"/>
</g>
</svg>
