<?xml version="1.0" encoding="utf-8"?>
<!-- Generator: Adobe Illustrator 24.0.1, SVG Export Plug-In . SVG Version: 6.00 Build 0)  -->
<svg version="1.1" id="Camada_1" xmlns="http://www.w3.org/2000/svg" xmlns:xlink="http://www.w3.org/1999/xlink" x="0px" y="0px"
	 viewBox="0 0 500 500" style="enable-background:new 0 0 500 500;" xml:space="preserve">
<style type="text/css">
	.st0{fill-rule:evenodd;clip-rule:evenodd;fill:#993333;}
</style>
<path class="st0" d="M443.6,419.4c0,13.4-10.8,24.2-24.2,24.2H80.6c-13.4,0-24.2-10.8-24.2-24.2v-242c0-13.4,10.8-24.2,24.2-24.2
	h338.8c13.4,0,24.2,10.8,24.2,24.2V419.4L443.6,419.4z M443.6,56.4V32.2c0-13.4-10.8-24.2-24.2-24.2c-13.4,0-24.2,10.8-24.2,24.2
	v24.2h-121V32.2C274.2,18.8,263.4,8,250,8s-24.2,10.8-24.2,24.2v24.2h-121V32.2C104.8,18.8,94,8,80.6,8S56.4,18.8,56.4,32.2v24.2
	C29.7,56.4,8,78.1,8,104.8v338.8C8,470.3,29.7,492,56.4,492h387.2c26.7,0,48.4-21.7,48.4-48.4V104.8C492,78.1,470.3,56.4,443.6,56.4
	L443.6,56.4L443.6,56.4z"/>
</svg>
