<?xml version="1.0" encoding="utf-8"?>
<!-- Generator: Adobe Illustrator 24.0.1, SVG Export Plug-In . SVG Version: 6.00 Build 0)  -->
<svg version="1.1" id="Camada_1" xmlns="http://www.w3.org/2000/svg" xmlns:xlink="http://www.w3.org/1999/xlink" x="0px" y="0px"
	 viewBox="0 0 500 500" style="enable-background:new 0 0 500 500;" xml:space="preserve">
<style type="text/css">
	.st0{fill-rule:evenodd;clip-rule:evenodd;fill:#993333;}
</style>
<path class="st0" d="M6,449.1l103.3-98.4l34.4,32.8L40.4,481.9L6,449.1L6,449.1z M298.2,342.8L298.2,342.8
	c-80.6,0-146.1-62.4-146.1-139.2c0-76.8,65.5-139.2,146.1-139.2c80.5,0,146.1,62.5,146.1,139.2C444.3,280.4,378.8,342.8,298.2,342.8
	L298.2,342.8z M298.2,18.1L298.2,18.1c-107.6,0-194.8,83-194.8,185.5c0,102.4,87.2,185.5,194.8,185.5S493,306.1,493,203.6
	S405.8,18.1,298.2,18.1L298.2,18.1z"/>
</svg>
