<?xml version="1.0" encoding="utf-8"?>
<!-- Generator: Adobe Illustrator 24.0.1, SVG Export Plug-In . SVG Version: 6.00 Build 0)  -->
<svg version="1.1" id="Camada_1" xmlns="http://www.w3.org/2000/svg" xmlns:xlink="http://www.w3.org/1999/xlink" x="0px" y="0px"
	 viewBox="0 0 500 500" style="enable-background:new 0 0 500 500;" xml:space="preserve">
<style type="text/css">
	.st0{fill-rule:evenodd;clip-rule:evenodd;fill:#993333;}
</style>
<path class="st0" d="M493,449.1l-34.4,32.8l-103.3-98.4l34.4-32.8L493,449.1L493,449.1z M200.8,342.8
	c-80.6,0-146.1-62.4-146.1-139.2c0-76.7,65.6-139.2,146.1-139.2c80.6,0,146.1,62.4,146.1,139.2C346.9,280.4,281.4,342.8,200.8,342.8
	L200.8,342.8L200.8,342.8z M200.8,18.1C93.2,18.1,6,101.1,6,203.6s87.2,185.5,194.8,185.5S395.6,306,395.6,203.6
	C395.6,101.1,308.4,18.1,200.8,18.1L200.8,18.1L200.8,18.1z"/>
</svg>
