<svg id="Camada_1" data-name="Camada 1" xmlns="http://www.w3.org/2000/svg" xmlns:xlink="http://www.w3.org/1999/xlink" viewBox="0 0 283.74 130.94"><defs><style>.cls-1{fill:none;clip-rule:evenodd;}.cls-2{fill:#d2ab67;}.cls-2,.cls-3,.cls-5,.cls-6,.cls-7,.cls-8,.cls-9{fill-rule:evenodd;}.cls-3{fill:#003226;}.cls-4{clip-path:url(#clip-path);}.cls-5{fill:#005443;}.cls-6{fill:#359471;}.cls-7{fill:#00624e;}.cls-8{fill:#fffcd5;}.cls-9{fill:#b28b40;}</style><clipPath id="clip-path" transform="translate(7.39 4.68)"><path class="cls-1" d="M112.67,46.27c1.11-1.71,1.29-5.19,1-7.52a20.17,20.17,0,0,0,2.66-20.36C113.15,13.93,107,8.08,100.13,6a16.37,16.37,0,0,1,3.57,7.35,20.37,20.37,0,0,0-6.82-3.66,17,17,0,0,0-3.36,1.15,17.91,17.91,0,0,1-1.14-4.14A55.32,55.32,0,0,0,79,4.8a50.8,50.8,0,0,0-8.88.87,14.21,14.21,0,0,1,1.4-2.78Q60.75,3.53,54.3,13.31A16.37,16.37,0,0,1,57.87,6,20.93,20.93,0,0,0,41.64,18.39a20.15,20.15,0,0,0,2.67,20.36c-.27,2.33-.09,5.81,1,7.52a6.17,6.17,0,0,1-1.63,0c.41,1.85,2.7,5.28,4.65,6.35-.77,5.3-.1,16,2,21.72.37-.49,1-1.35,1.43-1.77,1.51,3.73,5.76,10.81,7.78,12.87a13.43,13.43,0,0,1,.69-3.11c.78,1.45,3.9,4.43,5.42,5.71.18,1.2,2.09,5.65,4,7.45a10.62,10.62,0,0,1,2.48-3.17c.66,1.35,4.87,5.4,6.81,5.9,1.94-.5,6.15-4.55,6.81-5.9a10.62,10.62,0,0,1,2.48,3.17c1.95-1.8,3.86-6.25,4-7.45,1.52-1.28,4.64-4.26,5.42-5.71a13.43,13.43,0,0,1,.69,3.11c2-2.06,6.27-9.14,7.78-12.87.39.42,1.06,1.28,1.43,1.77,2.1-5.75,2.77-16.42,2-21.72,1.95-1.07,4.24-4.5,4.65-6.35A6.17,6.17,0,0,1,112.67,46.27Z"/></clipPath></defs><title>marca-pre-home</title><path class="cls-2" d="M114.13,79.53H117a4,4,0,0,0,3-1,4.86,4.86,0,0,0,.91-3.29,4.46,4.46,0,0,0-1-3.34,4.94,4.94,0,0,0-3.44-1h-2.37v8.61Zm0-14.44h2.57a3.71,3.71,0,0,0,2.7-.82c.54-.54.81-1.6.81-3.19a4.61,4.61,0,0,0-.79-3.14,3.89,3.89,0,0,0-2.82-.81l-1.28,0c-.53,0-.93,0-1.19.08v7.86Zm-8.31-13.15q2.78-.55,5.52-.82c1.82-.18,3.48-.27,5-.27a24.2,24.2,0,0,1,5,.47A10,10,0,0,1,125,52.9a7.24,7.24,0,0,1,2.4,2.92,10.44,10.44,0,0,1,.84,4.42,9,9,0,0,1-1.06,4.6A8.43,8.43,0,0,1,123.62,68a10.36,10.36,0,0,1,2.77,1.6,6.77,6.77,0,0,1,1.68,2,7.92,7.92,0,0,1,.82,2.3,12.7,12.7,0,0,1,.22,2.38,10,10,0,0,1-.89,4.54,7.55,7.55,0,0,1-2.42,2.87,9.31,9.31,0,0,1-3.61,1.51,22.49,22.49,0,0,1-4.45.42H107.65c-1.22,0-1.83-.58-1.83-1.73V51.94ZM155.59,72.8a31.92,31.92,0,0,1-.45,5.62,9.86,9.86,0,0,1-1.75,4.25,8.18,8.18,0,0,1-3.61,2.67,16.52,16.52,0,0,1-6,.91,21.41,21.41,0,0,1-5.44-.61,8.4,8.4,0,0,1-3.83-2.13,9.21,9.21,0,0,1-2.25-4.1,24.44,24.44,0,0,1-.74-6.61V51.34h6.82c1.22,0,1.83.58,1.83,1.73V74.19a14.76,14.76,0,0,0,.15,2.25,4.62,4.62,0,0,0,.52,1.61,2.31,2.31,0,0,0,1,1,4.11,4.11,0,0,0,1.75.32,4.52,4.52,0,0,0,1.81-.3,2,2,0,0,0,1-.94,4.83,4.83,0,0,0,.42-1.63c.06-.66.09-1.46.09-2.42V51.34h6.83c1.22,0,1.83.58,1.83,1.73V72.8Zm24.1-14.63H168.22v6.77h8.21c1.22,0,1.83.58,1.83,1.73v5.1h-10V85.61h-6.83c-1.22,0-1.83-.58-1.83-1.73V51.34h18.3c1.22,0,1.83.58,1.83,1.73v5.1Zm23,0H191.18v6.77h8.21c1.22,0,1.83.58,1.83,1.73v5.1h-10V85.61h-6.82c-1.22,0-1.83-.58-1.83-1.73V51.34h18.3c1.22,0,1.83.58,1.83,1.73v5.1Zm15.49,19,.8,6.63c.16,1.19.77,1.78,1.83,1.78h7.12q-1.44-9.35-3.27-17.73a144.45,144.45,0,0,0-4-15,3.43,3.43,0,0,0-.6-1,1.67,1.67,0,0,0-1.38-.5h-8.95a139,139,0,0,0-4.25,14.89q-1.68,7.45-3,15.57a6.84,6.84,0,0,0-.15.94c0,.33,0,.65,0,.94a2.14,2.14,0,0,0,.42,1.49,1.48,1.48,0,0,0,1.12.44h6.62c.07-1.12.18-2.42.35-3.91s.34-3,.54-4.5Zm-3.46-19.53q1,4.15,1.66,7.35t1.16,6h-5.64c.37-1.91.75-3.93,1.17-6s1-4.58,1.65-7.35Zm17.53,27.94c-1.22,0-1.83-.58-1.83-1.73V51.34h6.82c1.22,0,1.83.58,1.83,1.73V78.54h9.2c1.22,0,1.83.58,1.83,1.73v5.34ZM259.29,68.5c0,2.34.06,4.23.17,5.66a12.84,12.84,0,0,0,.62,3.34,2.7,2.7,0,0,0,1.26,1.58,5.71,5.71,0,0,0,4.2,0,2.63,2.63,0,0,0,1.26-1.58,12.43,12.43,0,0,0,.62-3.34c.12-1.43.18-3.32.18-5.66s-.06-4.18-.18-5.61a12.51,12.51,0,0,0-.62-3.34,2.76,2.76,0,0,0-1.26-1.61,5.46,5.46,0,0,0-4.2,0,2.84,2.84,0,0,0-1.26,1.61,12.92,12.92,0,0,0-.62,3.34c-.11,1.43-.17,3.3-.17,5.61Zm17.06,0a37.2,37.2,0,0,1-.94,9.25,13.33,13.33,0,0,1-2.62,5.41,8.06,8.06,0,0,1-4.08,2.53,23.16,23.16,0,0,1-10.56,0,8.06,8.06,0,0,1-4-2.53,13.2,13.2,0,0,1-2.62-5.41,36.73,36.73,0,0,1-.94-9.25,36.84,36.84,0,0,1,.94-9.25,13.2,13.2,0,0,1,2.62-5.41,8,8,0,0,1,4-2.52,22.79,22.79,0,0,1,10.56,0,8,8,0,0,1,4.08,2.52,13.33,13.33,0,0,1,2.62,5.41,37.31,37.31,0,0,1,.94,9.25ZM114.13,120.17H117a3.92,3.92,0,0,0,3-1,4.85,4.85,0,0,0,.91-3.29,4.49,4.49,0,0,0-1-3.34,5,5,0,0,0-3.44-1h-2.37v8.6Zm0-14.44h2.57a3.76,3.76,0,0,0,2.7-.81,4.62,4.62,0,0,0,.81-3.19,4.57,4.57,0,0,0-.79-3.14,3.85,3.85,0,0,0-2.82-.82l-1.28,0c-.53,0-.93,0-1.19.07v7.86Zm-8.31-13.15q2.78-.54,5.52-.82c1.82-.18,3.48-.27,5-.27a24.2,24.2,0,0,1,5,.47A10,10,0,0,1,125,93.55a7.28,7.28,0,0,1,2.4,2.91,10.48,10.48,0,0,1,.84,4.43,9.05,9.05,0,0,1-1.06,4.6,8.34,8.34,0,0,1-3.59,3.11,10.37,10.37,0,0,1,2.77,1.61,6.77,6.77,0,0,1,1.68,2,7.92,7.92,0,0,1,.82,2.3,12.67,12.67,0,0,1,.22,2.37,10.08,10.08,0,0,1-.89,4.55,7.63,7.63,0,0,1-2.42,2.87,9.46,9.46,0,0,1-3.61,1.51,22.49,22.49,0,0,1-4.45.42H107.65c-1.22,0-1.83-.58-1.83-1.73V92.58ZM150.59,92c1.22,0,1.83.57,1.83,1.73v5.09h-12v6.53h8.7c1.22,0,1.83.58,1.83,1.73v5.09H140.46v7.27h10.63c1.22,0,1.83.58,1.83,1.73v5.1h-19c-1.22,0-1.83-.58-1.83-1.73V92Zm24,0c1.22,0,1.83.57,1.83,1.73v5.09h-12v6.53h8.7c1.22,0,1.83.58,1.83,1.73v5.09H164.46v7.27h10.63c1.22,0,1.83.58,1.83,1.73v5.1h-19c-1.22,0-1.83-.58-1.83-1.73V92Zm7.29,34.27c-1.22,0-1.83-.58-1.83-1.73V92.58c1.84-.36,3.7-.63,5.56-.82s3.7-.27,5.51-.27c4,0,6.93.88,8.9,2.62s3,4.6,3,8.56a15.15,15.15,0,0,1-.22,2.55,11.58,11.58,0,0,1-.74,2.52A8.6,8.6,0,0,1,200.6,110a8.2,8.2,0,0,1-2.3,1.78,24.65,24.65,0,0,1,2,3q1,1.71,1.8,3.63t1.53,3.93a36.47,36.47,0,0,1,1.14,3.89h-7.12a2.63,2.63,0,0,1-1.43-.35,2.18,2.18,0,0,1-.84-1.29,51.61,51.61,0,0,0-2.18-5.88c-.86-1.95-1.66-3.59-2.42-4.95h-2.33v12.47Zm6.57-18.75h2.62a4.34,4.34,0,0,0,1.41-.22,2.92,2.92,0,0,0,1.19-.76,3.79,3.79,0,0,0,.82-1.49,8.46,8.46,0,0,0,.29-2.42,10.5,10.5,0,0,0-.24-2.52,3.3,3.3,0,0,0-.75-1.46,2.36,2.36,0,0,0-1.23-.69,7.21,7.21,0,0,0-1.68-.18h-.52l-.67,0-.69,0-.55,0Z" transform="translate(7.39 4.68)"/><path class="cls-2" d="M97.21,4.81l1.2,2.46-2,.5-.06,0-1.63.37-.27-1.69-.21-1.35-1.32-.33A56.68,56.68,0,0,0,79,2.86c-.83,0-1.66,0-2.48.07l-2.72.15L75,.74,71.4,1a23,23,0,0,0-9,2.32l-.23.11L57.59,4A23,23,0,0,0,40,17.12l-.35.76-.82.13c-1,.17-2,.37-3,.58-3.92.8-7.78,1.85-11.71,2.58-.76.15-1.52.27-2.29.37l-2.24.26.53-2.19a18.67,18.67,0,0,1,1-3l4.11-9.45c.94-1.69-.5-3.35-2.54-2.72C16.5,6.37,9.85,11.61,6,16.69a26.5,26.5,0,0,0-4.36,8.19,19.82,19.82,0,0,0,.84,14.23l.07.15.08.13A10.44,10.44,0,0,0,3.89,41l.33.34h0l.15.14.2.18.17.14L5,42l.17.13.23.18.19.13.21.14.18.12.23.15.19.11.23.14.2.1.2.11.23.12.22.11.21.1.24.1.23.1.21.08.27.11.2.07.25.09.45.15.49.15.51.14.44.11.09,0,.39.08.46.09.49.09.51.08.49.06.3,0,.21,0,.49,0,.31,0,.21,0,.49,0,.28,0h3.06l4.55,2.15C28.78,50.15,36,49.74,42,49.9l.83,0,.44.69a14.23,14.23,0,0,0,2.3,2.66l.56.52-.06.76c-.44,5.93.3,15.06,2.33,20.62l1.28,3.52,1.61-2.08,1.16,2.08A42.67,42.67,0,0,0,58.09,87l3.54,3.6V84.83l3,6.65a19.86,19.86,0,0,0,3.67,5.65l1.91,1.76L72,95.72,73.47,97c1.19,1.08,3.47,2.91,5,3.31l.51.12.51-.12c1.55-.4,3.83-2.23,5-3.31L86,95.72l1.81,3.17,1.91-1.76a19.64,19.64,0,0,0,3.67-5.65l3-6.65v5.79L99.91,87a42.23,42.23,0,0,0,5.63-8.32l1.16-2.08,1.61,2.08,1.29-3.52c2-5.57,2.77-14.77,2.31-20.7l0-.74.53-.51a15.7,15.7,0,0,0,2.2-2.68l.46-.7h.83c4.93-.07,10.6-.15,15.12-2.28l4.73-2.23.39,0c6.11.34,13.65-.3,17.29-6l.09-.13.06-.15c3.48-7.85,1.57-15.78-3.51-22.42-3.9-5.08-10.56-10.32-16.7-12.26-1.83-.53-3.49.25-2.77,2.22l4.33,10a19.47,19.47,0,0,1,1,3l.56,2.21-2.27-.27c-.76-.09-1.53-.21-2.28-.36-3.94-.73-7.8-1.78-11.71-2.58l-.92-.19-.81-.16-.32-.75-.13-.18c-4-5.61-10.64-11.14-17.3-13.2L96.18,2.7Z" transform="translate(7.39 4.68)"/><path class="cls-3" d="M101.48,49.45l6.72-13.2c10.46,1.31,16.13,6.75,21.92,9.31C122.1,49.34,109.4,46,101.48,49.45Z" transform="translate(7.39 4.68)"/><path class="cls-3" d="M52.8,49.45l-6.72-13.2C35.62,37.56,30,43,24.16,45.56,32.18,49.34,44.88,46,52.8,49.45Z" transform="translate(7.39 4.68)"/><path class="cls-3" d="M112.67,46.27c1.11-1.71,1.29-5.19,1-7.52a20.17,20.17,0,0,0,2.66-20.36C113.15,13.93,107,8.08,100.13,6a16.37,16.37,0,0,1,3.57,7.35,20.37,20.37,0,0,0-6.82-3.66,17,17,0,0,0-3.36,1.15,17.91,17.91,0,0,1-1.14-4.14A55.32,55.32,0,0,0,79,4.8a50.8,50.8,0,0,0-8.88.87,14.21,14.21,0,0,1,1.4-2.78Q60.75,3.53,54.3,13.31A16.37,16.37,0,0,1,57.87,6,20.93,20.93,0,0,0,41.64,18.39a20.15,20.15,0,0,0,2.67,20.36c-.27,2.33-.09,5.81,1,7.52a6.17,6.17,0,0,1-1.63,0c.41,1.85,2.7,5.28,4.65,6.35-.77,5.3-.1,16,2,21.72.37-.49,1-1.35,1.43-1.77,1.51,3.73,5.76,10.81,7.78,12.87a13.43,13.43,0,0,1,.69-3.11c.78,1.45,3.9,4.43,5.42,5.71.18,1.2,2.09,5.65,4,7.45a10.62,10.62,0,0,1,2.48-3.17c.66,1.35,4.87,5.4,6.81,5.9,1.94-.5,6.15-4.55,6.81-5.9a10.62,10.62,0,0,1,2.48,3.17c1.95-1.8,3.86-6.25,4-7.45,1.52-1.28,4.64-4.26,5.42-5.71a13.43,13.43,0,0,1,.69,3.11c2-2.06,6.27-9.14,7.78-12.87.39.42,1.06,1.28,1.43,1.77,2.1-5.75,2.77-16.42,2-21.72,1.95-1.07,4.24-4.5,4.65-6.35A6.17,6.17,0,0,1,112.67,46.27Z" transform="translate(7.39 4.68)"/><g class="cls-4"><path class="cls-5" d="M49.16-4.68l30.77,9.5C74.81,6.2,63.85,8.48,61.68,12c-3,4.85,1.74,8.59,1.09,14.78-.45,4.26-6,7.32,4.17,8.38-2.59.5-6,.54-12.07-.75-1.78,8.42,6.42,12.79,12.65,14.72l-.06.12c-2.77,2.24-10,0-11.7-.05C52.86,49.12,56.92,66,59,72.28c1,2.89-8.17-8.91-6-2.33C54,72.83,59.24,82.4,65.67,88l-6.35.46L43.79,81.43-7.39,59.53,2.68,2.3Z" transform="translate(7.39 4.68)"/></g><path class="cls-5" d="M100.13,6l3.57,7.35c3.22,2.36,9.79,6.29,12.39,9.57A45,45,0,0,0,100.13,6Z" transform="translate(7.39 4.68)"/><path class="cls-2" d="M85.21,82.57a21.87,21.87,0,0,1-12.42,0,5.4,5.4,0,0,0-1.06,5.55,6,6,0,0,1,2.2-2c.87,2.58,2.65,3.89,5.07,5.3,2.42-1.41,4.2-2.72,5.07-5.3a6,6,0,0,1,2.2,2A5.4,5.4,0,0,0,85.21,82.57Z" transform="translate(7.39 4.68)"/><path class="cls-6" d="M66.23,82.17a52.05,52.05,0,0,1-5.72-15.72,8,8,0,0,0-1.74,2.72A41,41,0,0,1,56.52,59a20,20,0,0,0-2,1.56,31,31,0,0,1-1.33-6.91,29.8,29.8,0,0,0-.14,10.61l1-.78A33.43,33.43,0,0,0,58.3,75.09l.82-1.86A44.27,44.27,0,0,0,66.23,82.17Z" transform="translate(7.39 4.68)"/><path class="cls-6" d="M104.76,53.67a31,31,0,0,1-1.33,6.91,20,20,0,0,0-2-1.56c-.11,2.76-.93,14-1.78,16.07a33.43,33.43,0,0,0,4.16-11.59l1,.78A29.8,29.8,0,0,0,104.76,53.67Z" transform="translate(7.39 4.68)"/><path class="cls-6" d="M49,41.13a11.68,11.68,0,0,0,3.27,5A18.45,18.45,0,0,1,53.4,41,9.57,9.57,0,0,1,49,41.13Z" transform="translate(7.39 4.68)"/><path class="cls-7" d="M88.81,77.64c-6-1.31-13.93,3.53-19.62.24C74.72,78.23,83.48,73.39,88.81,77.64Z" transform="translate(7.39 4.68)"/><path class="cls-7" d="M91.3,68a6.29,6.29,0,0,1-4.77,2.66,5.56,5.56,0,0,0,3-6.12A8.5,8.5,0,0,0,85,67.08a35.43,35.43,0,0,1-12,0,8.5,8.5,0,0,0-4.57-2.51,5.55,5.55,0,0,0,4.31,6.56,2.76,2.76,0,0,1-4.94.41,9.14,9.14,0,0,0-.9,4.57,11.32,11.32,0,0,1-2-13.37h0C73,59.28,84.56,59,92,62.24A6.23,6.23,0,0,1,91.3,68Z" transform="translate(7.39 4.68)"/><path class="cls-8" d="M85.21,82.57a21.87,21.87,0,0,1-12.42,0,5.4,5.4,0,0,0-1.06,5.55,6,6,0,0,1,2.2-2c.87,2.58,2.65,3.89,5.07,5.3a14.31,14.31,0,0,1-3-6C80.07,85.77,84.38,84,85.21,82.57Z" transform="translate(7.39 4.68)"/><path class="cls-6" d="M73,67.08A16.38,16.38,0,0,0,70.8,63c2.65-1.11,11.56-1.88,19.36-.78h0C82.69,59,73,59.28,64.9,62.74a11.32,11.32,0,0,0,2,13.37c-2.33-5.41-.59-10.33,1.53-11.54A8.5,8.5,0,0,1,73,67.08Z" transform="translate(7.39 4.68)"/><path class="cls-6" d="M86.53,70.69a3.73,3.73,0,0,0,3-6.12A5.57,5.57,0,0,1,86.53,70.69Z" transform="translate(7.39 4.68)"/><path class="cls-5" d="M20.19,23.6a32.84,32.84,0,0,0,4.26-.52c3.93-.74,7.82-1.79,11.74-2.6a51.27,51.27,0,0,1,15.15-1.12c9.75,1.27,4.72,13.45,7.07,20.17L53,39.15c-7.22-.52-14.5,1.09-21.56,2.4-6.74,1.25-22.11,4.38-27.11-3.4C-2.6,22.55,14.54,9,23.27,6.27l-4.08,9.38a19,19,0,0,0-1.44,5.24C17.62,22.72,18.44,23.64,20.19,23.6Z" transform="translate(7.39 4.68)"/><path class="cls-2" d="M48.75,22.77c7.32.67,3,8.54,4.5,12.82-15.33-1.09-30.47,6.67-42.34,2.88-9.56-3.59-1-21,5-24.25-1.68,3.86-2.27,7.51-1.15,9.87a5.38,5.38,0,0,0,3.06,2.75C23.55,28.43,38.2,22.05,48.75,22.77Z" transform="translate(7.39 4.68)"/><path class="cls-3" d="M135.46,23.58a33.54,33.54,0,0,1-3.91-.5c-3.93-.74-7.83-1.79-11.75-2.6A48.8,48.8,0,0,0,107,19.21l-2.36.15L97.58,39.53l5.42-.38c7.22-.52,14.5,1.09,21.56,2.4,6.74,1.25,22.11,4.38,27.11-3.4C158.6,22.55,141.46,9,132.73,6.27l4.08,9.38c.45,1,1.56,4.07,1.45,5.94C138.16,23.26,136.92,23.66,135.46,23.58Z" transform="translate(7.39 4.68)"/><path class="cls-2" d="M103.87,25.58c-.89,2.88-.13,7.18-1.12,10,15.33-1.09,30.47,6.67,42.33,2.88,9.56-3.59,1-21-5-24.25,1.59,3.66,2.21,7.13,1.32,9.49A5.38,5.38,0,0,1,137.74,27c-5.61,1.15-18.33-4.12-28.37-4.28C106.84,22.68,104.57,23.34,103.87,25.58Z" transform="translate(7.39 4.68)"/><path class="cls-9" d="M103.24,29.92a15.29,15.29,0,0,1-1.07,5.85c15.33-1.09,31.38,6.49,43.25,2.7,4.34-1.63,5-6.11,3.76-10.83.25,3.54-.86,6.51-4.26,7.59C133.22,38.3,118.35,30,103.24,29.92Z" transform="translate(7.39 4.68)"/><path class="cls-5" d="M60.41,38a237.81,237.81,0,0,0,40,.12c1.1-.12,1,.83.48.94A86.93,86.93,0,0,1,60,38.72C59.61,38.62,59.6,37.92,60.41,38Z" transform="translate(7.39 4.68)"/><path class="cls-5" d="M109.7,42.46a11.75,11.75,0,0,1-2.61,5.38,18.54,18.54,0,0,0-1.8-5A9.72,9.72,0,0,0,109.7,42.46Z" transform="translate(7.39 4.68)"/><path class="cls-5" d="M53.47,30.29c-.15,2-.39,4.09.15,5.67-14.87-1.09-29.56,6.67-41.08,2.88C8.34,37.21,7.74,32.73,8.9,28c-.25,3.54.83,6.51,4.13,7.59C24.38,38.67,38.81,30.33,53.47,30.29Z" transform="translate(7.39 4.68)"/><path class="cls-8" d="M48.3,23.71c3.24.3,4.2,2,4.39,4.18a5.06,5.06,0,0,0-3.17-1.21C39,26,24.32,32.34,18.59,30.75A5.36,5.36,0,0,1,15.53,28,5.73,5.73,0,0,1,15,26.12a5,5,0,0,0,2.36,1.67C23.1,29.38,37.75,23,48.3,23.71Z" transform="translate(7.39 4.68)"/><path class="cls-8" d="M108.45,23.71c-3.2.3-4.14,2-4.34,4.18a5,5,0,0,1,3.14-1.21c10.42-.72,24.88,5.66,30.54,4.07a5.35,5.35,0,0,0,3-2.76,6,6,0,0,0,.51-1.87A5,5,0,0,1,139,27.79C133.33,29.38,118.87,23,108.45,23.71Z" transform="translate(7.39 4.68)"/><path class="cls-5" d="M61,46.9c2.8,1.1,10.64,1.92,11,1.52.51-.72-8.9-5.15-14.13-5.88C57,42.38,59,46.09,61,46.9Z" transform="translate(7.39 4.68)"/><path class="cls-2" d="M62.79,47.17c2.32,1,8.88,1.65,9.17,1.28.44-.66-7.38-4.62-11.75-5.24C59.48,43.08,61.15,46.45,62.79,47.17Z" transform="translate(7.39 4.68)"/><path class="cls-3" d="M54.3,13.31,57.87,6c-7.42,5-9.82,9.57-3,13.15A13,13,0,0,1,54.3,13.31Z" transform="translate(7.39 4.68)"/><path class="cls-3" d="M71.52,2.89l-1.4,2.78a49.25,49.25,0,0,0-10,4.24A22.38,22.38,0,0,1,71.52,2.89Z" transform="translate(7.39 4.68)"/><path class="cls-5" d="M69.29,51.78a79.51,79.51,0,0,1,19.86-.09c.55.09.52-.61.24-.69a29.58,29.58,0,0,0-20.28.24C68.9,51.32,68.89,51.84,69.29,51.78Z" transform="translate(7.39 4.68)"/><path class="cls-5" d="M71.84,56a59,59,0,0,1,14.79-.07c.41.07.39-.45.18-.51a22.05,22.05,0,0,0-15.11.18A.22.22,0,0,0,71.84,56Z" transform="translate(7.39 4.68)"/><path class="cls-3" d="M52.82,55.09c-2.38-1.4-4-4.83-5.55-7.6a12,12,0,0,0,6.5,2.25c-3-2.05-6-4-7.51-10.53,6.4-.57,10.35-4.75,7.42-5-10.12-.84-30.25,12.91-48.3,5.28,5.83,6.07,19.73,3.24,26.05,2.07,4.21-.78,6.84-1.46,11.15-1.94a16.82,16.82,0,0,0,2.75,6.66,6.17,6.17,0,0,1-1.63,0C44.77,51.09,49.56,53.9,52.82,55.09Z" transform="translate(7.39 4.68)"/><path class="cls-5" d="M97.3,46.9c-2.79,1.1-10.64,1.92-11,1.52-.51-.72,8.91-5.15,14.13-5.88C101.33,42.38,99.27,46.09,97.3,46.9Z" transform="translate(7.39 4.68)"/><path class="cls-2" d="M95.51,47.17c-2.33,1-8.89,1.65-9.18,1.28-.43-.66,7.39-4.62,11.76-5.24C98.81,43.08,97.14,46.45,95.51,47.17Z" transform="translate(7.39 4.68)"/></svg>