<svg id="Camada_1" data-name="Camada 1" xmlns="http://www.w3.org/2000/svg" xmlns:xlink="http://www.w3.org/1999/xlink" viewBox="0 0 30 30"><defs><style>.cls-1,.cls-2{fill:none;}.cls-2{clip-path:url(#clip-path);clip-rule:evenodd;}.cls-3{clip-path:url(#clip-path-2);}.cls-4{fill:#993333;}</style><clipPath id="clip-path"><rect class="cls-1" x="1" y="1" width="20" height="20"/></clipPath><clipPath id="clip-path-2" transform="translate(4 4)"><path class="cls-2" d="M11,11a4,4,0,1,1,4-4,4,4,0,0,1-4,4m3.76.67a6,6,0,1,0-7.52,0A9.63,9.63,0,0,0,1,21H3a7.66,7.66,0,0,1,8-8,7.66,7.66,0,0,1,8,8h2a9.63,9.63,0,0,0-6.24-9.33"/></clipPath></defs><title>user</title><g class="cls-3"><rect class="cls-4" width="30" height="30"/></g></svg>